<svg width="70" height="39" viewBox="0 0 70 39" fill="none" xmlns="http://www.w3.org/2000/svg">
<g clip-path="url(#clip0_231_10)">
<path d="M27.9282 33.5623C21.6873 37.198 13.5266 36.4166 8.12312 31.1446C1.66486 24.8384 1.57233 14.4921 7.91494 8.07556C14.2622 1.65906 24.6759 1.56713 31.1342 7.87332C36.5793 13.1867 37.4814 21.3728 33.8313 27.656L36.1999 29.968C41.0621 22.3656 40.1091 12.1479 33.3918 5.58893C25.6705 -1.95827 13.2074 -1.84796 5.62031 5.82794C-1.97139 13.5038 -1.86036 25.8818 5.86551 33.4244C12.5412 39.942 22.7467 40.7326 30.2968 35.8743L27.9282 33.5623Z" fill="#0068AC"/>
<path d="M15.5113 11.5093L10.1494 26.1578H13.1519L14.0401 23.5655H19.277L20.1468 26.1578H23.1492L17.7642 11.5093H15.5066H15.5113ZM14.8497 21.157L16.7095 15.8298L18.5137 21.157H14.8497Z" fill="#0068AC"/>
<path d="M28.3311 23.7675H26.6333V11.5366H23.9824V26.2036H28.3311V23.7675Z" fill="#0068AC"/>
<path d="M53.1324 21.9244C53.1324 23.2573 52.716 24.2961 51.8879 25.0407C51.0552 25.7853 49.9634 26.153 48.6079 26.153H42.418V11.4585H48.3581C49.783 11.4585 50.9025 11.8308 51.7121 12.5708C52.5217 13.3108 52.9288 14.3174 52.9288 15.586C52.9288 16.3306 52.7207 16.9971 52.3043 17.5854C51.9573 18.0543 51.5548 18.399 51.1015 18.615C52.457 19.2493 53.137 20.3478 53.137 21.9152L53.1324 21.9244ZM50.0374 15.7147C50.0374 15.2045 49.8709 14.7954 49.5378 14.4875C49.2047 14.1795 48.7328 14.0233 48.1268 14.0233H45.3001V17.4062H48.1268C48.7374 17.4062 49.2047 17.2499 49.5378 16.9419C49.8709 16.634 50.0374 16.2249 50.0374 15.7147ZM50.2456 21.7819C50.2456 21.2579 50.0791 20.8304 49.746 20.4903C49.4129 20.1548 48.9364 19.9847 48.3118 19.9847H45.3001V23.5974H48.3118C48.9364 23.5974 49.4129 23.4274 49.746 23.0827C50.0791 22.7379 50.2456 22.3059 50.2456 21.7819Z" fill="#0068AC"/>
<path d="M58.3458 26.153H55.459V11.4585H58.3458V26.153Z" fill="#0068AC"/>
<path d="M70.0001 26.153H60.2803V23.8411L66.5951 14.0187H60.5486V11.4585H70.0001V13.7291L63.6667 23.5929H70.0001V26.153Z" fill="#0068AC"/>
</g>
<defs>
<clipPath id="clip0_231_10">
<rect width="70" height="39" fill="white"/>
</clipPath>
</defs>
</svg>
