<?xml version="1.0" encoding="UTF-8"?>
<svg id="Ebene_1" data-name="Ebene 1" xmlns="http://www.w3.org/2000/svg" viewBox="0 0 780.53 360.55">
  <defs>
    <style>
      .cls-1 {
        fill: #e87511;
      }
    </style>
  </defs>
  <path class="cls-1" d="M780.53,198.31H149.39V.34h-5.32L0,227.84h123.7v132.71h28.56v-133.57h628.27v-28.67h0ZM123.33,200.54H45.48l77.84-120.56v120.56h0Z"/>
  <polygon points="659.22 302.26 659.22 290.54 630.29 290.54 630.27 260.06 659.22 260.06 659.22 245.58 600.16 245.58 600.16 347.15 659.22 347.15 659.22 334.84 630.29 334.84 630.29 302.26 659.22 302.26 659.22 302.26"/>
  <path d="M722.72,307.98l22.33,39.17h30.38l-27.39-49.16.97-.18c.79-.14,19.38-3.25,19.38-27.72s-23.74-24.54-23.74-24.54h-67.43v101.6h28.43l.03-44.31.59-.1c.06-.01,1.51-.25,3.58-.25,4.23,0,9.9.95,12.87,5.49h0ZM721.63,290.99h-15.95s0-30.99,0-30.99h15.94s17.41.17,17.41,15.5-17.41,15.49-17.41,15.49h0Z"/>
  <path d="M547.17,245.55h-53.35v101.6h49.87c6.12,0,26.11-1.38,35.51-19.4,10.65-20.4,7.26-50-3.18-65.28-5.56-7.94-15.43-16.92-28.86-16.92h0ZM553.76,315.25c-1.67,9.41-6.95,19.41-18.37,19.41h-12.21v-75.39h.72s11.17.01,11.17.01c5.15,0,9.3,3.71,11.67,7.43,9.29,14.56,9.46,31.17,7.02,48.53h0Z"/>
  <path d="M264.58,297.16c-2.43-2.5-8.67-6.42-8.73-6.46l-.84-.52.77-.62c9.84-7.72,12.13-15.06,10.75-25.32-1.32-9.7-9.19-18.76-21.58-18.76h-68.86v101.69l70.1.04c11.74,0,23.79-7.82,25.88-23.89,1.43-10.96-.87-19.11-7.49-26.15h0ZM218.16,290.99h-13.81v-31.68h13.84s17.27,0,17.27,15.84-17.29,15.84-17.29,15.84h0ZM221.88,334.14h-17.54v-31.88h17.54s17.24.18,17.24,15.94-17.24,15.94-17.24,15.94h0Z"/>
  <path d="M371.3,347.15l.03-72.2c0-17.75-11.21-29.41-25.96-29.41h-31.35c-16.35,0-27.25,11.83-27.32,29.38v72.22h30.13v-45.42h24.38v45.42h30.1ZM341.24,276.87v11.65s-24.42-.01-24.42-.01v-11.64s-.93-17.57,12.21-17.57,12.21,17.57,12.21,17.57h0Z"/>
  <path d="M445.68,322.84v-77.3h29.58l.05,72.29c-.07,17.55-11.06,29.38-27.4,29.38h-30.62c-14.75,0-26.68-13.19-26.68-29.41v-72.26h29.59v77.32s-.1,10.54,12.68,10.54,12.8-10.56,12.8-10.56h0Z"/>
  <path class="cls-1" d="M349.09,90.22c0-49.83-40.39-90.22-90.22-90.22s-90.22,40.39-90.22,90.22,40.39,90.22,90.22,90.22,90.22-40.39,90.22-90.22h0ZM323.3,90.22c0,35.58-28.85,64.43-64.43,64.43s-64.43-28.85-64.43-64.43,28.85-64.43,64.43-64.43,64.43,28.85,64.43,64.43h0Z"/>
</svg>