<svg width="152" height="24" xmlns="http://www.w3.org/2000/svg" xmlns:xlink="http://www.w3.org/1999/xlink"><defs><circle id="a" cx="12" cy="12" r="12"/></defs><g fill="none" fill-rule="evenodd"><path d="M0-12h154v48H0z"/><path d="M45.052 20.286h-1.057l-2.415-6.97a43.47 43.47 0 01-.679-2.111h-.04c-.239.8-.478 1.476-.698 2.11l-2.515 6.97H36.57L32 6.716h1.578l2.934 9.02c.239.758.458 1.434.638 2.11h.038c.18-.655.439-1.331.699-2.07l2.277-6.396-.898-2.665h1.537l3.013 8.938c.258.78.519 1.434.7 2.09h.038a24.5 24.5 0 01.579-2.027l2.874-9h1.537l-4.492 13.57zm11.601-1.193c-.725.768-1.743 1.193-2.938 1.193-1.155 0-2.154-.405-2.878-1.172-.842-.888-1.293-2.242-1.293-3.818s.471-2.889 1.293-3.777c.745-.788 1.742-1.233 2.898-1.233 1.195 0 2.193.445 2.938 1.233.82.888 1.292 2.201 1.292 3.777s-.47 2.909-1.312 3.797m-2.918-7.556c-1.744 0-2.741 1.455-2.741 3.717s1.037 3.758 2.76 3.758c1.724 0 2.762-1.496 2.762-3.758s-.997-3.717-2.781-3.717m7.932 8.749c-1.116 0-1.597-.775-1.597-1.819V5.286h1.404v12.492c0 .94.212 1.128.75 1.128.096 0 .25 0 .48-.06l.173 1.105c-.422.23-.748.335-1.21.335m5.623 0c-1.417 0-2.107-.84-2.107-2.122v-6.725H63.58v-1.302h1.604V7.953l1.523-.524v2.71h3.023l-.542 1.301h-2.481v6.262c0 .84.312 1.218.96 1.218.708 0 1.354-.399 1.75-.714l.479 1.092c-.73.546-1.688.988-2.605.988m4.887-4.73c0 1.82 1.053 3.436 3.179 3.436.81 0 1.703-.323 2.27-.688l.446 1.011c-.69.566-1.905.97-3.019.97-2.998 0-4.458-2.445-4.458-5.172 0-2.768 1.581-4.827 3.89-4.827 2.471 0 3.83 1.959 3.83 4.928v.343h-6.138zm2.33-4.02c-1.42 0-2.311 1.253-2.311 2.769h4.518c0-1.333-.75-2.768-2.208-2.768zm10.223.503a2.228 2.228 0 00-.873-.165c-.543 0-1.436.496-2.019 1.175v7.237h-1.418v-9.752h1.165l.195 1.113c1.262-1.216 1.961-1.361 2.62-1.361.408 0 .758.165.932.29l-.602 1.463zm4.075 8.247c-1.345 0-2.157-.364-2.77-.728l.553-1.152a4.256 4.256 0 002.277.687c1.147 0 1.98-.525 1.98-1.415 0-2.343-4.257-1.514-4.257-4.867 0-1.375.971-2.525 3.11-2.525.989 0 1.74.22 2.354.504v1.294c-.652-.282-1.325-.565-2.297-.565-.95 0-1.741.343-1.741 1.211 0 2.141 4.336 1.597 4.336 4.726 0 2.002-1.624 2.83-3.545 2.83m16.946 0l-5.53-6.137h-.022v6.137h-1.533V6.714h1.533v6.24h.022l5.15-6.198h1.913l-5.698 6.672 6.202 6.858zm5.038 0c-1.116 0-1.597-.775-1.597-1.819V5.286h1.403v12.492c0 .94.211 1.128.75 1.128.096 0 .25 0 .481-.06L112 19.95c-.423.23-.75.335-1.21.335m9.132-.207l-.39-1.014c-.723.62-1.858 1.222-3.159 1.222-1.318 0-2.97-.683-2.97-3.437v-6.563h1.505v6.418c0 1.636.681 2.277 1.9 2.277 1.238 0 2.187-.787 2.6-1.305v-7.39h1.507v5.693c0 3.085.06 3.685.208 4.1h-1.2zm13.43.208h-1.358l-2.43-8.014h-.061l-2.407 8.014h-1.317l-3.253-10h1.524l2.386 7.885h.062l2.41-7.885h1.357l2.428 7.907h.061l2.346-7.907h1.461zm5.492-4.73c0 1.82 1.054 3.436 3.18 3.436.81 0 1.702-.323 2.269-.688l.445 1.011c-.69.566-1.903.97-3.017.97-3 0-4.458-2.445-4.458-5.172 0-2.768 1.58-4.827 3.89-4.827 2.47 0 3.83 1.959 3.83 4.928v.343h-6.139zm2.33-4.02c-1.42 0-2.312 1.253-2.312 2.769h4.519c0-1.333-.75-2.768-2.207-2.768zm10.223.503a2.222 2.222 0 00-.874-.165c-.541 0-1.436.496-2.019 1.175v7.237h-1.416v-9.752h1.164l.195 1.113c1.262-1.216 1.96-1.361 2.62-1.361.408 0 .76.165.933.29l-.603 1.463z" fill="#474747"/><mask id="b" fill="#fff"><use xlink:href="#a"/></mask><use fill="#409BD2" xlink:href="#a"/><path fill="#A6D1EA" mask="url(#b)" d="M0 0h16v16H0z"/><path fill="#D4E8B1" mask="url(#b)" d="M-5 8h34v8H-5z"/><path fill="#409BD2" mask="url(#b)" d="M8 8h21v8H8z"/><path fill="#D4E8B1" mask="url(#b)" d="M8-5h8v34H8z"/><path fill="#409BD2" mask="url(#b)" d="M8 8h8v21H8z"/><path fill="#A4CD58" mask="url(#b)" d="M8 8h16v16H8z"/><path fill="#E5202E" mask="url(#b)" d="M8 8h8v8H8z"/><path fill="#007AC3" mask="url(#b)" d="M16 16h8v8h-8z"/></g></svg>