<svg id="Calque_1" data-name="Calque 1" xmlns="http://www.w3.org/2000/svg"
    viewBox="0 0 104.09 15.71">
    <defs>
        <style>.cls-1{fill:#fff;}.cls-2{fill:#fff;}</style>
    </defs>
    <path class="cls-1" d="M77.43,3.42v8.75H76v-2h-3.3l-1.44,2H69.47l6.15-8.75ZM73.58,8.8H76V5.43Z" />
    <path class="cls-1"
        d="M80,11.34a2.84,2.84,0,0,1-1-2.2V3.41h1.48V9.14A1.63,1.63,0,0,0,81,10.4a2.13,2.13,0,0,0,2.79,0,1.64,1.64,0,0,0,.59-1.26V3.41h1.48V9.14a2.85,2.85,0,0,1-1,2.2,3.74,3.74,0,0,1-4.89,0Z" />
    <path class="cls-1" d="M94.82,3.42V4.75H91.74v7.42H90.25V4.75H87.17V3.42Z" />
    <path class="cls-1"
        d="M96.47,11a4.3,4.3,0,0,1-1.31-3.16,4.26,4.26,0,0,1,1.31-3.15,4.45,4.45,0,0,1,6.31,0,4.3,4.3,0,0,1,1.31,3.15A4.34,4.34,0,0,1,102.78,11a4.45,4.45,0,0,1-6.31,0Zm.94-5.37a3,3,0,0,0-.92,2.21A3,3,0,0,0,97.41,10a3.13,3.13,0,0,0,5.34-2.22,3.14,3.14,0,0,0-3.13-3.13A3,3,0,0,0,97.41,5.58Z" />
    <polygon class="cls-2"
        points="12.39 0.66 10.27 0.66 6.9 7.84 3.51 0.66 1.42 0.66 0 12.19 2.52 12.19 3.32 5.4 5.95 10.94 7.88 10.94 10.49 5.4 11.28 12.19 13.8 12.19 12.39 0.66" />
    <path class="cls-2"
        d="M19.57,6.5a1.41,1.41,0,0,0-.13-.63,1,1,0,0,0-.36-.38,1.43,1.43,0,0,0-.55-.18,4.12,4.12,0,0,0-.73,0A5.79,5.79,0,0,0,16,5.59a4.62,4.62,0,0,1-.34-.78,3.28,3.28,0,0,1-.11-.89,8.68,8.68,0,0,1,2.73-.46,3.89,3.89,0,0,1,2.62.8,3.23,3.23,0,0,1,.94,2.57v4.83c-.38.11-.84.23-1.37.33a9.13,9.13,0,0,1-1.82.16A7,7,0,0,1,17.1,12a3.27,3.27,0,0,1-1.17-.48,2.35,2.35,0,0,1-.76-.87,2.84,2.84,0,0,1-.27-1.3,2.39,2.39,0,0,1,.33-1.3,2.53,2.53,0,0,1,.86-.83,3.6,3.6,0,0,1,1.16-.45,6.29,6.29,0,0,1,1.29-.14c.31,0,.65,0,1,.05Zm0,1.65-.42-.06-.4,0a2.36,2.36,0,0,0-1.25.28,1,1,0,0,0-.46.91,1,1,0,0,0,.18.64,1.06,1.06,0,0,0,.43.33,1.53,1.53,0,0,0,.53.13l.49,0a3.88,3.88,0,0,0,.48,0l.42-.08Z" />
    <path class="cls-2"
        d="M27.2,13.79c1.9,0,2.4-1.52,2.29-3.21a2.66,2.66,0,0,1-2.4,1.27,3.92,3.92,0,0,1-3.76-4.18,3.93,3.93,0,0,1,3.76-4.23,2.69,2.69,0,0,1,2.4,1.26V3.61H31.4v6.91c0,3.6-1.59,5.19-4.2,5.19a3.91,3.91,0,0,1-3.58-2.39c.43-.22,1.16-.64,1.59-.86A2.26,2.26,0,0,0,27.2,13.79Zm.2-8.33a2.06,2.06,0,0,0-2,2.18,2.06,2.06,0,0,0,2,2.21,2.12,2.12,0,0,0,2-2.21A2,2,0,0,0,27.4,5.46Z" />
    <path class="cls-2"
        d="M33.63,3.65a3.5,3.5,0,0,1,.45-.07,3.84,3.84,0,0,1,.5,0,3.33,3.33,0,0,1,.48,0,3.64,3.64,0,0,1,.44.07,1.1,1.1,0,0,1,.09.23c0,.1,0,.21.07.32l.06.33c0,.11,0,.2,0,.28a3.84,3.84,0,0,1,.38-.49,3.13,3.13,0,0,1,.52-.43,2.75,2.75,0,0,1,.67-.31,2.66,2.66,0,0,1,.82-.12,2.75,2.75,0,0,1,2.13.77A3.46,3.46,0,0,1,41,6.66V12a6.61,6.61,0,0,1-2.29,0V7.27a2.72,2.72,0,0,0-.26-1.34,1,1,0,0,0-.93-.46,1.85,1.85,0,0,0-.56.08,1.08,1.08,0,0,0-.52.31,1.69,1.69,0,0,0-.38.65,3.61,3.61,0,0,0-.14,1.09V12a6.61,6.61,0,0,1-2.29,0Z" />
    <path class="cls-2"
        d="M44.89,8.5a1.75,1.75,0,0,0,.67,1.4,2.74,2.74,0,0,0,1.61.44,6.25,6.25,0,0,0,1.12-.11,7.11,7.11,0,0,0,1.08-.29,3.73,3.73,0,0,1,.31.77,4.19,4.19,0,0,1,.14,1,7.85,7.85,0,0,1-2.83.48,5.34,5.34,0,0,1-2-.32,3.5,3.5,0,0,1-1.35-.89,3.45,3.45,0,0,1-.77-1.36,5.54,5.54,0,0,1-.25-1.72,5.68,5.68,0,0,1,.25-1.72,4.23,4.23,0,0,1,.77-1.4,3.68,3.68,0,0,1,1.25-.94,4.14,4.14,0,0,1,1.75-.34,3.78,3.78,0,0,1,1.54.3,3.45,3.45,0,0,1,1.15.84,3.39,3.39,0,0,1,.71,1.26,4.74,4.74,0,0,1,.25,1.57q0,.3,0,.6a3.75,3.75,0,0,1-.05.47Zm3.26-1.59a2,2,0,0,0-.42-1.24,1.36,1.36,0,0,0-1.11-.48,1.59,1.59,0,0,0-1.22.45,2.16,2.16,0,0,0-.5,1.27Z" />
    <path class="cls-2"
        d="M52.33,5.39h-1l-.08-.33,3-3.84h.37V3.65h2c0,.16,0,.31.06.43s0,.27,0,.41,0,.29,0,.43,0,.29-.06.47h-2V8.65a3.4,3.4,0,0,0,.08.8,1.18,1.18,0,0,0,.24.49.85.85,0,0,0,.37.24,2.09,2.09,0,0,0,.53.06,2.59,2.59,0,0,0,.48,0l.41-.07a3.23,3.23,0,0,1,.16.63,4.54,4.54,0,0,1,0,.59c0,.12,0,.22,0,.3a1.6,1.6,0,0,1,0,.23,6.39,6.39,0,0,1-1.52.18,3.26,3.26,0,0,1-2.24-.69,2.83,2.83,0,0,1-.77-2.22Z" />
    <path class="cls-2"
        d="M58.71,5.39H57.64a3,3,0,0,1-.08-.45c0-.15,0-.3,0-.44a3.47,3.47,0,0,1,.1-.85H61V12a6.32,6.32,0,0,1-2.24,0Zm-.33-3.14a5.64,5.64,0,0,1-.1-1.08A5.76,5.76,0,0,1,58.38.1,4.78,4.78,0,0,1,59,0l.57,0,.6,0a5,5,0,0,1,.59.08,3.33,3.33,0,0,1,.07.54c0,.17,0,.35,0,.53s0,.35,0,.53a3.31,3.31,0,0,1-.07.55l-.58.07H59Z" />
    <path class="cls-2"
        d="M66.75,11.44l2.06-2.93,0-.15a2.07,2.07,0,0,0-.4-.68,2.2,2.2,0,0,0-.62-.45,4.27,4.27,0,0,0-.81-.32L66,6.64a3.14,3.14,0,0,1-.62-.27.58.58,0,0,1-.21-.5.57.57,0,0,1,.3-.54,1.83,1.83,0,0,1,.85-.17,3.87,3.87,0,0,1,1,.12,7.25,7.25,0,0,1,.86.28,4,4,0,0,0,.3-.79,3.92,3.92,0,0,0,.16-.86,7.57,7.57,0,0,0-1.23-.34,6.43,6.43,0,0,0-1.24-.11,3.75,3.75,0,0,0-2.39.69,2.31,2.31,0,0,0-.88,1.91,2.05,2.05,0,0,0,.51,1.52,3.17,3.17,0,0,0,1.41.76l1,.29a2.33,2.33,0,0,1,.65.3.63.63,0,0,1,.24.56.61.61,0,0,1-.16.44,1.14,1.14,0,0,1-.37.27,2,2,0,0,1-.49.15,4.6,4.6,0,0,1-.49,0,4.48,4.48,0,0,1-1-.11,6.74,6.74,0,0,1-1-.31,5.19,5.19,0,0,0-.31.86,4.4,4.4,0,0,0-.15.87,5,5,0,0,0,.62.21c.2.06.39.1.59.14a6.17,6.17,0,0,0,.62.08c.21,0,.45,0,.71,0a5.09,5.09,0,0,0,1.06-.1Z" />
</svg>