<svg viewBox="0 0 500 500" version="1.1" xmlns="http://www.w3.org/2000/svg" data-sanitized-data-name="Ebene 1" data-name="Ebene 1" id="Ebene_1">
  <defs>
    <style>
      .cls-1 {
        fill: #1d1d1b;
        stroke-width: 0px;
      }
    </style>
  </defs>
  <path d="M123.1,272.28c-6.07,0-8.99-4.67-7.47-10.08,3.15-11.2,23.38-27.8,37.17-27.8,10.06,0,9.29,9,3.4,16.67l-3.26,3.6c-11.68,11.47-22.52,17.6-29.84,17.6h0ZM172.38,196.75c-17.6,0-36.98,10.77-49.14,20.97l.96,1.39c18.88-13.24,45.09-21.85,52.32-8.94,3.82,6.82-2.66,20.57-11.78,31.45,2.19-4.8.75-14.02-11.97-14.02-21.15,0-62.76,28.01-62.76,56.67,0,11.48,7.96,18.98,21.08,18.98,35.12,0,82.75-57.57,82.75-86.48,0-10.21-5.88-20.01-21.45-20.01h0Z" class="cls-1"></path>
  <path d="M217.59,272.28c-2.04,0-3.74-.72-4.81-2.01-1.11-1.37-1.44-3.3-.91-5.3,1.16-4.34,5.84-7.74,10.64-7.74h11.3l-4.03,15.05h-12.19ZM250.07,227.14c-3.24-3.97-8.47-5.75-12.21-5.75h-20.54l-3.49,13h19.37l1.85.2s1.79.2,2.76,1.53c.8,1.1.91,2.74.34,4.89l-.92,3.42h-12.2c-10.5,0-25.15,7.54-28.41,19.71-1.63,6.07-.2,11.33,2.95,15.19,3.13,3.84,9.03,5.95,15.41,5.95h11.3,0s14.37,0,14.37,0l6.74-25.16,4.96-18.5c1.95-7.27-.16-11.89-2.28-14.48h0Z" class="cls-1"></path>
  <path d="M391.15,221.39c-5.55,0-10.71,1.64-14.92,4.76-4.24,3.14-6.58,6.91-7.97,12.11-3.02,11.28,5.83,16.72,12.96,20.57,5.11,2.77,9.52,5.15,8.57,8.69-.68,2.54-1.79,4.76-8.07,4.76h-19.18l-3.48,13h21.23c5.69,0,10.94-1.19,15.18-4.44,4.24-3.26,6.63-7.8,8.12-13.35,1.42-5.28.46-10.32-2.94-14.08-2.83-3.15-6.9-5.35-10.49-7.29-4.6-2.47-8.93-4.81-8.17-7.64.46-1.71,2.17-4.1,5.88-4.1h18.65l3.49-13h-18.85Z" class="cls-1"></path>
  <path d="M279.85,221.39c-5.56,0-10.72,1.64-14.92,4.76-4.24,3.14-6.58,6.91-7.98,12.11-3.02,11.28,5.85,16.72,12.97,20.57,5.11,2.77,9.52,5.15,8.57,8.69-.68,2.54-1.79,4.76-8.07,4.76h-19.17l-3.48,13h21.23c5.7,0,10.95-1.19,15.18-4.44,4.24-3.26,6.63-7.8,8.12-13.35,1.42-5.28.45-10.32-2.93-14.08-2.83-3.15-6.9-5.35-10.5-7.29-4.59-2.47-8.92-4.81-8.16-7.64.46-1.71,2.16-4.1,5.87-4.1h18.64l3.49-13h-18.85Z" class="cls-1"></path>
  <polygon points="308.81 221.39 292.17 285.29 306.23 285.29 322.87 221.39 308.81 221.39 308.81 221.39" class="cls-1"></polygon>
  <path d="M360.29,221.39c-24.76.09-37.72,16.58-41.83,31.95-4.88,18.22,4.82,31.95,22.56,31.95h11.89l3.48-13h-11.88c-6.64,0-15.77-5.23-12.09-18.94,2.92-10.91,13.55-18.94,25.22-18.94h7.55l3.48-13h-8.37Z" class="cls-1"></path>
</svg>