<svg id="Component_132_1" data-name="Component 132 – 1" xmlns="http://www.w3.org/2000/svg" xmlns:xlink="http://www.w3.org/1999/xlink" width="133" height="101" viewBox="0 0 133 101">
  <defs>
    <linearGradient id="linear-gradient" x1="0.5" y1="0.177" x2="0.5" y2="0.854" gradientUnits="objectBoundingBox">
      <stop offset="0" stop-color="#6d6e71"/>
      <stop offset="0.077" stop-color="#616365"/>
      <stop offset="0.253" stop-color="#4a4a4c"/>
      <stop offset="0.431" stop-color="#2e2e2f"/>
      <stop offset="0.611" stop-color="#101010"/>
      <stop offset="0.798"/>
    </linearGradient>
    <clipPath id="clip-path">
      <rect id="Rectangle_264" data-name="Rectangle 264" width="133" height="101" fill="none"/>
    </clipPath>
  </defs>
  <g id="Smyrna" transform="translate(0 2.278)">
    <path id="Path_459" data-name="Path 459" d="M59.572,90.053A42.892,42.892,0,1,0,16.68,47.162,42.979,42.979,0,0,0,59.572,90.053Z" transform="translate(6.8 0.95)" fill-rule="evenodd" fill="url(#linear-gradient)"/>
    <path id="Path_460" data-name="Path 460" d="M59.572,90.053A42.892,42.892,0,1,0,16.68,47.162,42.979,42.979,0,0,0,59.572,90.053Z" transform="translate(6.8 0.95)" fill="none" stroke="#000" stroke-miterlimit="10" stroke-width="8.56" fill-rule="evenodd"/>
    <path id="Path_461" data-name="Path 461" d="M94.395,45.313A36.627,36.627,0,1,1,57.767,8.7,36.628,36.628,0,0,1,94.395,45.313Z" transform="translate(8.618 2.756)" fill="none"/>
    <path id="Path_462" data-name="Path 462" d="M94.395,45.313A36.627,36.627,0,1,1,57.767,8.7,36.628,36.628,0,0,1,94.395,45.313Z" transform="translate(8.618 2.756)" fill="none" stroke="#fff" stroke-miterlimit="10" stroke-width="1.141"/>
    <g id="Group_161" data-name="Group 161" transform="translate(41.414 44.494)">
      <path id="Path_463" data-name="Path 463" d="M68.141,32.17H55.05v8.094L61.722,43.9l.9.493V58.015h5.518Z" transform="translate(-18.972 -32.17)" fill="#fff"/>
      <path id="Path_464" data-name="Path 464" d="M56.771,36.05v7.475l-13.7-7.475V43.5L29.42,36.05V56.616h41.2V43.6ZM37.782,52.928H33.376v-2.97h4.406Zm12.247,0H45.622v-2.97h4.406Zm12.247,0H57.869v-2.97h4.406Z" transform="translate(-29.42 -30.588)" fill="#fff"/>
    </g>
    <g id="Group_164" data-name="Group 164" transform="translate(0 69.916)">
      <g id="Group_162" data-name="Group 162" transform="translate(0 0.845)">
        <path id="Path_465" data-name="Path 465" d="M30.152,54.758,0,54.73l3.083,8.8-2.6,8h30.11Z" transform="translate(0 -49.24)"/>
        <path id="Path_466" data-name="Path 466" d="M14.33,68.595l10.543,4.688-.042-17.244L16.526,50.83Z" transform="translate(5.842 -50.83)" stroke="#fff" stroke-linecap="round" stroke-linejoin="round" stroke-miterlimit="10" stroke-width="0.571"/>
      </g>
      <g id="Group_163" data-name="Group 163" transform="translate(102.14 0.69)">
        <path id="Path_467" data-name="Path 467" d="M73.16,54.758,103.3,54.73l-3.083,8.8,2.6,8H72.71Z" transform="translate(-72.499 -49.085)"/>
        <path id="Path_468" data-name="Path 468" d="M83.174,68.64,72.56,73.172,72.6,55.928l8.305-5.208Z" transform="translate(-72.56 -50.72)" stroke="#fff" stroke-linecap="round" stroke-linejoin="round" stroke-miterlimit="10" stroke-width="0.571"/>
      </g>
      <rect id="Rectangle_149" data-name="Rectangle 149" width="92.582" height="18.609" transform="translate(20.172)" stroke="#fff" stroke-linecap="square" stroke-linejoin="round" stroke-miterlimit="10" stroke-width="0.571"/>
    </g>
    <g id="Group_165" data-name="Group 165" transform="translate(7.095 81.163)">
      <path id="Path_469" data-name="Path 469" d="M5.04,64.405v-6.1H7.7v.929H6.054v1.436H7.6V61.6H6.054v1.872H7.771v.943H5.04Z" transform="translate(-5.04 -58.183)" fill="#fff"/>
      <path id="Path_470" data-name="Path 470" d="M8.8,64.583c-.845,0-1.52-.338-1.52-1.394V62.3h1c0,.282-.014.577-.014.859,0,.366.169.563.493.563.535,0,.507-.465.507-.915a.8.8,0,0,0-.352-.816l-.957-.7-.1-.1a1.594,1.594,0,0,1-.549-1.38,2.411,2.411,0,0,1,.127-.845,1.434,1.434,0,0,1,1.38-.746,1.288,1.288,0,0,1,1.337.845,3.877,3.877,0,0,1,.056,1.07h-1V59.7c0-.366-.056-.619-.436-.619s-.465.225-.465.605a.79.79,0,0,0,.324.788l.985.746a2.081,2.081,0,0,1,.352.352,1.963,1.963,0,0,1,.31,1.464C10.278,64.132,9.8,64.583,8.8,64.583Z" transform="translate(-4.127 -58.22)" fill="#fff"/>
      <path id="Path_471" data-name="Path 471" d="M11.637,59.2v5.222H10.624V59.2H9.61V58.31h3.041V59.2Z" transform="translate(-3.177 -58.183)" fill="#fff"/>
      <path id="Path_472" data-name="Path 472" d="M11.79,62.962V61.85H12.7v1.112Z" transform="translate(-2.288 -56.74)" fill="#fff"/>
    </g>
    <g id="Group_166" data-name="Group 166" transform="translate(38.655 32.655)">
      <path id="Path_473" data-name="Path 473" d="M52.032,26.266H48.26a1.872,1.872,0,0,1-.45-.042.661.661,0,0,1-.493-.676.7.7,0,0,1,.507-.676,1.745,1.745,0,0,1,.436-.028h5.349V23.76H48.175a3.065,3.065,0,0,0-.535.028,1.806,1.806,0,0,0-.028,3.561,5.6,5.6,0,0,0,.619.028h3.66a1.8,1.8,0,0,1,.282.014.735.735,0,0,1,.662.76.743.743,0,0,1-.619.746,2.281,2.281,0,0,1-.31.014H46.317v1.1H51.99c.07,0,.38,0,.45-.014a1.876,1.876,0,0,0,.084-3.7A3.978,3.978,0,0,0,52.032,26.266Z" transform="translate(-19.853 -23.76)" fill="#fff"/>
      <path id="Path_474" data-name="Path 474" d="M44.38,26.266H40.608a1.872,1.872,0,0,1-.45-.042.661.661,0,0,1-.493-.676.7.7,0,0,1,.507-.676,1.745,1.745,0,0,1,.436-.028h5.349V23.76H40.5a3.065,3.065,0,0,0-.535.028,1.806,1.806,0,0,0-.028,3.561,5.6,5.6,0,0,0,.619.028h3.66a1.8,1.8,0,0,1,.282.014.735.735,0,0,1,.662.76.743.743,0,0,1-.619.746,2.281,2.281,0,0,1-.31.014H38.637v1.1H44.31c.07,0,.38,0,.45-.014a1.876,1.876,0,0,0,.084-3.7A3.613,3.613,0,0,0,44.38,26.266Z" transform="translate(-22.984 -23.76)" fill="#fff"/>
      <rect id="Rectangle_150" data-name="Rectangle 150" width="1.197" height="6.25" transform="translate(11.233)" fill="#fff"/>
      <path id="Path_475" data-name="Path 475" d="M34.09,28.757l-4.941-5H27.46v6.25h1.211V24.985L33.64,30.01h1.647V23.76h-1.2Z" transform="translate(-27.46 -23.76)" fill="#fff"/>
      <path id="Path_476" data-name="Path 476" d="M67.91,28.757l-4.941-5H61.28v6.25h1.211V24.985L67.46,30.01h1.647V23.76h-1.2Z" transform="translate(-13.673 -23.76)" fill="#fff"/>
      <path id="Path_477" data-name="Path 477" d="M57.069,23.76l-3.9,6.25h1.464l.718-1.154h4.842l.718,1.154h1.464l-3.9-6.25Zm-1.126,4.1,1.83-2.942,1.83,2.942Z" transform="translate(-16.979 -23.76)" fill="#fff"/>
    </g>
    <g id="Group_167" data-name="Group 167" transform="translate(24.578 73.717)">
      <path id="Path_478" data-name="Path 478" d="M28.285,62.418c-1.14,1.548-3.59,1.746-5.349,1.746-2.449,0-5.152-.535-5.476-3.449l3.7-.1c.225,1.028,1.436,1.2,2.323,1.2.676,0,1.83-.169,1.83-1.056,0-.605-.591-.774-1.084-.887-1.309-.31-3.97-.605-5.011-1.323a2.631,2.631,0,0,1-1.239-2.252,2.93,2.93,0,0,1,.563-1.689c1.056-1.422,3.1-1.675,4.73-1.675,1.731,0,4.209.155,5.152,1.9a3.056,3.056,0,0,1,.352,1.154L25.1,56.2a1.5,1.5,0,0,0-.2-.436,2.14,2.14,0,0,0-1.661-.549c-.549,0-1.647.1-1.647.845,0,.591.662.732,1.126.859,1.309.366,2.675.507,3.984.887a2.7,2.7,0,0,1,2.238,2.646A3.351,3.351,0,0,1,28.285,62.418Z" transform="translate(-17.46 -52.93)" fill="#fff"/>
      <path id="Path_479" data-name="Path 479" d="M38.349,63.717V57l-2.477,6.715h-2.9l-2.463-6.686v6.686H26.82V53.23H31.8l2.646,6.855L37.1,53.23h4.969V63.717Z" transform="translate(-13.644 -52.808)" fill="#fff"/>
      <path id="Path_480" data-name="Path 480" d="M46.975,60.6v3.125h-3.73V60.6L38.43,53.24h4.378l1.731,3.153c.211.38.366.8.563,1.2a12.639,12.639,0,0,1,.633-1.408l1.633-2.942H51.7Z" transform="translate(-8.911 -52.804)" fill="#fff"/>
      <path id="Path_481" data-name="Path 481" d="M56.605,63.717,54.437,59.9H52.453v3.815H48.68V53.23h7.855c1.436,0,2.787.211,3.561,1.591a3.529,3.529,0,0,1,.45,1.731A2.849,2.849,0,0,1,58.9,59.283a6.815,6.815,0,0,1-.76.239l2.618,4.195Zm-.971-8.108h-3.2v1.928H55.31c.69,0,1.492-.1,1.492-.971C56.8,55.89,56.239,55.609,55.634,55.609Z" transform="translate(-4.733 -52.808)" fill="#fff"/>
      <path id="Path_482" data-name="Path 482" d="M66.9,63.725c-1.689-1.914-3.435-3.787-5.039-5.786.028,1.112.056,2.224.056,3.322v2.449H58.2V53.224h3.111l3.224,3.533c.648.718,1.281,1.422,1.858,2.2-.042-1.112-.07-2.238-.07-3.364V53.21h3.7V63.7H66.9Z" transform="translate(-0.852 -52.816)" fill="#fff"/>
      <path id="Path_483" data-name="Path 483" d="M76.752,63.717l-.563-1.7H72.178l-.563,1.7H67.49L72.023,53.23H76.3l4.547,10.487Zm-2.576-7.573-1.2,3.547h2.435Z" transform="translate(2.936 -52.808)" fill="#fff"/>
    </g>
    <g id="Group_168" data-name="Group 168" transform="translate(114.936 81.149)">
      <path id="Path_484" data-name="Path 484" d="M82.495,63.883V59.6a1.807,1.807,0,0,1-.845.352v-.774a1.964,1.964,0,0,0,.957-.605l.211-.3h.662v5.6Z" transform="translate(-81.65 -58.181)" fill="#fff"/>
      <path id="Path_485" data-name="Path 485" d="M85.271,63.981a1.255,1.255,0,0,1-1.309-.718,2.591,2.591,0,0,1-.07-.873h.971c0,.394-.1.845.479.845.338,0,.45-.183.45-.493V61.56a1.225,1.225,0,0,1-.859.338.916.916,0,0,1-1.028-.985v-1.38c0-1,.535-1.323,1.464-1.323.816,0,1.38.324,1.38,1.211V62.7C86.749,63.644,86.115,63.981,85.271,63.981Zm.507-4.49c0-.31-.1-.521-.45-.521s-.479.2-.479.521v1.042c0,.31.042.605.436.605a.445.445,0,0,0,.479-.507C85.777,60.237,85.777,59.857,85.777,59.491Z" transform="translate(-80.738 -58.21)" fill="#fff"/>
      <path id="Path_486" data-name="Path 486" d="M89.029,63.274a1.369,1.369,0,0,1-1.3.7c-.845,0-1.464-.394-1.464-1.281v-.718c0-.633.1-.8.662-1.07a.809.809,0,0,1-.577-.9v-.591c0-.873.535-1.2,1.351-1.2a1.256,1.256,0,0,1,1.3.7,1.24,1.24,0,0,1,.056.45v.718c0,.436-.225.619-.591.8.507.225.648.394.648.943v.831A1.406,1.406,0,0,1,89.029,63.274Zm-.859-1.52c0-.31-.141-.479-.465-.479-.366,0-.45.239-.45.563v.873c0,.324.141.507.479.507s.45-.211.45-.507v-.957Zm-.028-2.323a.43.43,0,1,0-.859-.028v.746c0,.3.155.408.436.408s.408-.169.408-.436v-.69Z" transform="translate(-79.767 -58.206)" fill="#fff"/>
      <path id="Path_487" data-name="Path 487" d="M90.072,63.977c-.732,0-1.422-.31-1.422-1.154v-.69h.971v.605c0,.338.127.493.479.493.31,0,.422-.169.422-.45V61.95c0-.718-.324-.7-.929-.7v-.662h.2c.816,0,.69-.493.69-1.1,0-.31-.07-.493-.422-.493-.282,0-.436.127-.436.408v.577h-.929v-.69c0-.8.732-1.07,1.408-1.07.718,0,1.365.324,1.365,1.126v.648c0,.605-.239.788-.816.873.7.113.845.253.845.971V62.7C91.508,63.569,90.888,63.977,90.072,63.977Z" transform="translate(-78.796 -58.206)" fill="#fff"/>
    </g>
    <g id="Group_169" data-name="Group 169" transform="translate(20.538 1.94)">
      <path id="Path_488" data-name="Path 488" d="M20.361,37.712l.155,1.337-5.222,3.1-.169-1.52,3.435-1.872a5.52,5.52,0,0,1,.507-.225,3.293,3.293,0,0,1-.535-.127l-3.773-1.084L14.59,35.84Z" transform="translate(-14.59 11.88)" fill="#fff"/>
      <path id="Path_489" data-name="Path 489" d="M20.108,36.136,14.59,35.8l.31-5.138,1,.056-.225,3.758,1.239.07.225-3.632.985.056L17.9,34.6l1.309.084.239-3.913.985.056Z" transform="translate(-14.59 9.768)" fill="#fff"/>
      <path id="Path_490" data-name="Path 490" d="M21.563,27.275l-2.309-.563-.8,3.238,2.309.563-.338,1.351L15.06,30.54l.338-1.351,2.069.507.8-3.238L16.2,25.951l.338-1.351L21.9,25.923Z" transform="translate(-14.398 7.298)" fill="#fff"/>
      <path id="Path_491" data-name="Path 491" d="M21.908,25.3,16.77,23.245l.521-1.3,5.138,2.055Z" transform="translate(-13.701 6.217)" fill="#fff"/>
      <path id="Path_492" data-name="Path 492" d="M24.646,19.286a3.711,3.711,0,0,1-.563,2.492c-.929,1.633-2.463,2.421-4.209,1.436-1.788-1.014-1.774-2.829-.845-4.462a3.28,3.28,0,0,1,3.026-1.858L21.479,18.3a2.01,2.01,0,0,0-.408.042,1.871,1.871,0,0,0-1.182.957,1.844,1.844,0,0,0,.69,2.646,1.909,1.909,0,0,0,2.675-.788,1.78,1.78,0,0,0-.042-2.027l.7-1.281A2.481,2.481,0,0,1,24.646,19.286Z" transform="translate(-13.033 4.151)" fill="#fff"/>
      <path id="Path_493" data-name="Path 493" d="M25.293,18.891,21,15.4l.873-1.07,3.505,2.843,1.943-2.379.788.648Z" transform="translate(-11.977 3.111)" fill="#fff"/>
      <path id="Path_494" data-name="Path 494" d="M27.778,16.619l-3.688-4.11L27.919,9.06l.662.732-2.8,2.52.831.929,2.7-2.435.662.732-2.7,2.435.873.971,2.914-2.618.662.732Z" transform="translate(-10.717 0.963)" fill="#fff"/>
      <path id="Path_495" data-name="Path 495" d="M36.864,9.644l-.887-.718-2.534,1.281.056,1.14-1.351.676-.1-6.137,1.337-.676,4.871,3.73ZM33.6,7.012a2.345,2.345,0,0,1-.324-.324c.028.141.042.282.056.422l.084,2.013,1.731-.873Z" transform="translate(-7.472 -0.607)" fill="#fff"/>
      <path id="Path_496" data-name="Path 496" d="M40.443,4.4A1.721,1.721,0,0,0,38.7,4.234c-.408.113-1.14.408-.971.957a.423.423,0,0,0,.253.282,6.2,6.2,0,0,0,1.746-.084c1.028-.127,2.224-.3,2.59.957.436,1.492-.985,2.21-2.168,2.562a3.09,3.09,0,0,1-3.336-.633l1.112-.662a.919.919,0,0,0,.225.183,2.087,2.087,0,0,0,1.788.1c.45-.127,1.309-.507,1.126-1.112-.127-.436-.7-.338-1.042-.3l-.971.127a2.941,2.941,0,0,1-2.083-.225,1.416,1.416,0,0,1-.507-.732c-.38-1.3.929-2.069,1.985-2.379a3.042,3.042,0,0,1,3.153.45Z" transform="translate(-5.702 -1.489)" fill="#fff"/>
      <path id="Path_497" data-name="Path 497" d="M45.835,3.552c-.352-.535-1.14-.535-1.689-.479-.422.042-1.2.2-1.126.774a.419.419,0,0,0,.2.324,6.082,6.082,0,0,0,1.731.211c1.028.042,2.238.1,2.393,1.394.183,1.548-1.351,2.013-2.59,2.154a3.094,3.094,0,0,1-3.181-1.2l1.211-.465a1.422,1.422,0,0,0,.183.225,2.169,2.169,0,0,0,1.76.436c.465-.056,1.38-.267,1.3-.9-.056-.465-.633-.45-.971-.465l-.985-.042a2.829,2.829,0,0,1-2.013-.591,1.362,1.362,0,0,1-.366-.816C41.528,2.763,42.95,2.228,44.047,2.1a3.1,3.1,0,0,1,3.041.985Z" transform="translate(-3.591 -1.891)" fill="#fff"/>
      <path id="Path_498" data-name="Path 498" d="M46.91,7.458l.3-5.518,5.152.282-.056,1L48.529,3.01l-.07,1.239,3.632.2-.056.985-3.632-.2-.07,1.309,3.913.211-.056.985Z" transform="translate(-1.414 -1.94)" fill="#fff"/>
      <path id="Path_499" data-name="Path 499" d="M57.6,9.233l.985-3.744A2.9,2.9,0,0,1,58.752,5c-.084.127-.169.253-.253.366l-2.59,3.421-1.225-.31-.619-4.167a3.425,3.425,0,0,1-.042-.535,3.006,3.006,0,0,1-.084.493l-.971,3.787L51.7,7.713,53.08,2.35l1.943.493.549,3.632c.042.282.056.577.07.873a6.9,6.9,0,0,1,.436-.676L58.33,3.687l1.914.493-1.38,5.363Z" transform="translate(0.538 -1.773)" fill="#fff"/>
      <path id="Path_500" data-name="Path 500" d="M63.2,11.225a1.723,1.723,0,0,1-1.76-.113l-3.477-1.7L60.4,4.44l3.28,1.6c.845.408,1.506,1.014,1.028,2a1.153,1.153,0,0,1-1.337.662,1.351,1.351,0,0,1,.465,1.788A1.7,1.7,0,0,1,63.2,11.225ZM62.267,8.86,60.24,7.875l-.619,1.281,1.971.957a.7.7,0,0,0,1.056-.324A.63.63,0,0,0,62.267,8.86Zm.845-2.027-1.9-.929-.535,1.084,1.872.915a.551.551,0,0,0,.859-.239A.553.553,0,0,0,63.112,6.833Z" transform="translate(3.09 -0.921)" fill="#fff"/>
      <path id="Path_501" data-name="Path 501" d="M62.53,11.675l3.209-4.5,1.126.8-2.618,3.674,2.506,1.788-.591.831Z" transform="translate(4.954 0.192)" fill="#fff"/>
      <path id="Path_502" data-name="Path 502" d="M68.791,14.485l-1.422,1.506-1-.943,1.422-1.506.465-4.322L69.5,10.388l-.366,2.52a.781.781,0,0,1-.084.31.849.849,0,0,1,.267-.084l2.548-.507,1.225,1.154Z" transform="translate(6.519 1.028)" fill="#fff"/>
      <path id="Path_503" data-name="Path 503" d="M75.584,21.83c-.788-.07-1.182-.662-1.548-1.267l-1.014-1.647-1.774,1.1L70.53,18.86l4.716-2.9,1.83,2.97a1.744,1.744,0,0,1,.183,2.055,2.1,2.1,0,0,1-.605.563A1.706,1.706,0,0,1,75.584,21.83Zm.591-2.534-1.028-1.675-1.3.8.887,1.45c.282.465.605.873,1.182.521A.724.724,0,0,0,76.175,19.3Z" transform="translate(8.215 3.775)" fill="#fff"/>
      <path id="Path_504" data-name="Path 504" d="M72.95,22.806l5.11-2.126.535,1.281-4.167,1.731,1.182,2.829-.943.394Z" transform="translate(9.201 5.7)" fill="#fff"/>
      <path id="Path_505" data-name="Path 505" d="M75.591,30.742l.9-.69-.648-2.759-1.126-.225L74.38,25.59l6,1.337.338,1.45-4.772,3.857Zm3.336-2.562a2.265,2.265,0,0,1,.394-.239L78.9,27.9,76.914,27.5l.436,1.886Z" transform="translate(9.784 7.701)" fill="#fff"/>
      <path id="Path_506" data-name="Path 506" d="M75.763,35.965l3.012-2.872c.267-.267.549-.493.845-.746-.31.042-.619.07-.943.084l-3.041.113-.056-1.323,5.532-.211.042,1.394-2.97,2.829c-.282.267-.563.521-.859.774a10.385,10.385,0,0,1,1.14-.1L81.3,35.8l.056,1.323-5.532.211Z" transform="translate(10.274 9.911)" fill="#fff"/>
      <path id="Path_507" data-name="Path 507" d="M79.826,40.277l-4.476-.605.183-1.38,4.476.605.282-2.027,1,.141-.746,5.448-1-.141Z" transform="translate(10.18 12.3)" fill="#fff"/>
    </g>
  </g>
  <g id="Canton" transform="translate(-0.001)">
    <g id="Group_215" data-name="Group 215" transform="translate(0.001 0)" clip-path="url(#clip-path)">
      <path id="Path_581" data-name="Path 581" d="M62.142,92.031A42.887,42.887,0,1,0,19.253,49.145,42.969,42.969,0,0,0,62.142,92.031Z" transform="translate(4.234 1.376)" fill="none" stroke="#1a1818" stroke-miterlimit="10" stroke-width="9.878"/>
      <path id="Path_582" data-name="Path 582" d="M22.605,44.883l.148,1.338-5.219,3.091L17.365,47.8l3.44-1.87a3.433,3.433,0,0,1,.5-.222,3.9,3.9,0,0,1-.542-.12L17,44.5l-.163-1.479Z" transform="translate(3.703 9.465)" fill="#fff"/>
      <path id="Path_583" data-name="Path 583" d="M22.359,42.512l-5.52-.334.314-5.143.993.06-.229,3.761,1.243.074L19.38,37.3l.986.059-.221,3.636,1.313.081.238-3.917.985.059Z" transform="translate(3.703 8.147)" fill="#fff"/>
      <path id="Path_584" data-name="Path 584" d="M23.881,32.717l-2.3-.569-.8,3.239,2.3.567L22.751,37.3l-5.367-1.322.331-1.346,2.069.51.8-3.239-2.069-.51.332-1.344,5.368,1.32Z" transform="translate(3.823 6.611)" fill="#fff"/>
      <rect id="Rectangle_259" data-name="Rectangle 259" width="1.386" height="5.531" transform="translate(23.613 34.223) rotate(-68.25)" fill="#fff"/>
      <path id="Path_585" data-name="Path 585" d="M27.478,23.55a3.758,3.758,0,0,1-.56,2.5c-.924,1.627-2.462,2.42-4.2,1.433-1.784-1.013-1.77-2.832-.848-4.458a3.27,3.27,0,0,1,3.03-1.854l-.582,1.407a1.986,1.986,0,0,0-.405.049,1.907,1.907,0,0,0-1.189.955,1.852,1.852,0,0,0,.693,2.651,1.913,1.913,0,0,0,2.677-.787,1.779,1.779,0,0,0-.041-2.02l.7-1.274a2.328,2.328,0,0,1,.726,1.4" transform="translate(4.674 4.654)" fill="#fff"/>
      <path id="Path_586" data-name="Path 586" d="M28.528,22.763l-4.289-3.487.872-1.075,3.5,2.843,1.936-2.381.791.642Z" transform="translate(5.331 4.004)" fill="#fff"/>
      <path id="Path_587" data-name="Path 587" d="M31.48,19.675l-3.694-4.111,3.832-3.442.664.739-2.8,2.516.832.926,2.707-2.434.659.736-2.707,2.433.88.978,2.917-2.622.659.733Z" transform="translate(6.111 2.667)" fill="#fff"/>
      <path id="Path_588" data-name="Path 588" d="M41.8,12.107l-.888-.716-2.53,1.276.05,1.141-1.349.68-.1-6.135,1.335-.673,4.871,3.731ZM38.525,9.473a2.139,2.139,0,0,1-.318-.321,3.522,3.522,0,0,1,.052.42l.082,2.02,1.732-.875Z" transform="translate(8.133 1.689)" fill="#fff"/>
      <path id="Path_589" data-name="Path 589" d="M46.042,6.535a1.769,1.769,0,0,0-1.751-.176c-.405.12-1.137.4-.974.959a.417.417,0,0,0,.256.282,6.373,6.373,0,0,0,1.745-.09c1.021-.132,2.223-.292,2.591.953.443,1.5-.986,2.212-2.173,2.563a3.079,3.079,0,0,1-3.338-.636l1.116-.666a1.378,1.378,0,0,0,.22.188,2.152,2.152,0,0,0,1.807.12c.45-.133,1.3-.5,1.125-1.11-.132-.442-.7-.34-1.043-.294l-.974.126a2.87,2.87,0,0,1-2.086-.233,1.415,1.415,0,0,1-.5-.732c-.384-1.3.922-2.07,1.981-2.384a3.093,3.093,0,0,1,3.16.445Z" transform="translate(9.237 1.139)" fill="#fff"/>
      <path id="Path_590" data-name="Path 590" d="M52.23,5.536C51.878,5.008,51.1,5,50.535,5.06c-.421.048-1.193.2-1.127.776a.414.414,0,0,0,.2.322,6.31,6.31,0,0,0,1.736.212c1.031.048,2.244.1,2.394,1.39.178,1.549-1.355,2.009-2.586,2.151a3.078,3.078,0,0,1-3.183-1.2l1.216-.462a1.264,1.264,0,0,0,.184.222,2.147,2.147,0,0,0,1.762.431c.466-.055,1.374-.27,1.3-.9-.052-.459-.627-.457-.976-.471l-.983-.044a2.864,2.864,0,0,1-2.017-.589,1.412,1.412,0,0,1-.37-.809c-.155-1.348,1.266-1.881,2.364-2.008a3.092,3.092,0,0,1,3.039.983Z" transform="translate(10.552 0.887)" fill="#fff"/>
      <path id="Path_591" data-name="Path 591" d="M54.122,9.423l.3-5.523,5.147.279-.054.993-3.762-.2-.067,1.244,3.638.2-.054.986-3.637-.2-.072,1.315,3.92.212-.054.985Z" transform="translate(11.905 0.858)" fill="#fff"/>
      <path id="Path_592" data-name="Path 592" d="M65.548,11.255l.987-3.74a3.6,3.6,0,0,1,.166-.493c-.082.126-.17.248-.257.372l-2.588,3.427-1.221-.315-.626-4.171a3.858,3.858,0,0,1-.044-.529,3.425,3.425,0,0,1-.083.488l-.955,3.775-1.275-.327,1.377-5.357,1.942.5.547,3.636a7.252,7.252,0,0,1,.067.866,5.476,5.476,0,0,1,.44-.671l2.253-2.98,1.919.493-1.376,5.357Z" transform="translate(13.121 0.964)" fill="#fff"/>
      <path id="Path_593" data-name="Path 593" d="M72.109,13.571a1.714,1.714,0,0,1-1.753-.109l-3.478-1.7,2.433-4.971L72.592,8.4c.837.41,1.509,1.017,1.025,2a1.155,1.155,0,0,1-1.343.66,1.347,1.347,0,0,1,.464,1.781,1.667,1.667,0,0,1-.628.731M71.183,11.2l-2.022-.982-.625,1.274,1.963.961a.687.687,0,0,0,1.049-.325c.215-.436.051-.726-.366-.928m.841-2.017-1.9-.931-.534,1.091,1.873.916A.57.57,0,0,0,72.329,10a.546.546,0,0,0-.3-.82" transform="translate(14.711 1.493)" fill="#fff"/>
      <path id="Path_594" data-name="Path 594" d="M72.147,14.447l3.2-4.509,1.13.805-2.614,3.676,2.5,1.781-.592.83Z" transform="translate(15.87 2.186)" fill="#fff"/>
      <path id="Path_595" data-name="Path 595" d="M79,17.561l-1.425,1.509-1-.945L78,16.615l.459-4.319,1.235,1.169-.359,2.524a.989.989,0,0,1-.081.315,1.069,1.069,0,0,1,.265-.087l2.55-.51,1.224,1.157Z" transform="translate(16.844 2.705)" fill="#fff"/>
      <path id="Path_596" data-name="Path 596" d="M86.437,25.952c-.788-.068-1.177-.655-1.555-1.269l-1.01-1.641L82.1,24.134l-.714-1.161,4.708-2.9,1.831,2.976a1.755,1.755,0,0,1,.189,2.056,2.044,2.044,0,0,1-.611.559,1.741,1.741,0,0,1-1.064.288m.587-2.541-1.031-1.676-1.294.8.892,1.448c.282.46.6.871,1.181.515a.7.7,0,0,0,.253-1.085" transform="translate(17.902 4.416)" fill="#fff"/>
      <path id="Path_597" data-name="Path 597" d="M84.179,27.653l5.108-2.128.532,1.28-4.166,1.737,1.182,2.835-.941.393Z" transform="translate(18.517 5.615)" fill="#fff"/>
      <path id="Path_598" data-name="Path 598" d="M87.033,36.343l.908-.7L87.3,32.886l-1.124-.222-.342-1.471,5.993,1.343.34,1.457-4.779,3.859Zm3.334-2.566a2.142,2.142,0,0,1,.387-.235,3.444,3.444,0,0,1-.421-.048l-1.984-.4.443,1.892Z" transform="translate(18.88 6.862)" fill="#fff"/>
      <path id="Path_599" data-name="Path 599" d="M87.388,42.4,90.4,39.527c.272-.261.553-.5.842-.745a8.959,8.959,0,0,1-.938.083l-3.046.117-.051-1.316,5.53-.211.052,1.386-2.974,2.828c-.279.271-.569.516-.866.771a10.352,10.352,0,0,1,1.142-.1l2.829-.109.05,1.316-5.531.211Z" transform="translate(19.183 8.239)" fill="#fff"/>
      <path id="Path_600" data-name="Path 600" d="M91.423,47.61,86.946,47l.188-1.382,4.477.611L91.89,44.2l1,.137-.743,5.441-1-.138Z" transform="translate(19.126 9.722)" fill="#fff"/>
      <path id="Path_601" data-name="Path 601" d="M97.648,47.979A36.628,36.628,0,1,1,61.019,11.351,36.628,36.628,0,0,1,97.648,47.979Z" transform="translate(5.364 2.497)" fill="none" stroke="#fff" stroke-miterlimit="10" stroke-width="1.317"/>
      <path id="Path_602" data-name="Path 602" d="M76.612,38.437H63.525v8.1l6.662,3.632.91.494V64.28h5.514Z" transform="translate(13.973 8.456)" fill="#fff"/>
      <path id="Path_603" data-name="Path 603" d="M61.3,42.912v7.47L47.6,42.912v7.447L33.952,42.912v20.57h41.2V50.465Zm-19,16.879H37.9V56.824h4.4Zm12.25,0h-4.4V56.824h4.4Zm12.249,0H62.4V56.824h4.4Z" transform="translate(7.468 9.44)" fill="#fff"/>
      <path id="Path_604" data-name="Path 604" d="M30.147,64.493,0,64.471l3.087,8.8-2.6,8H30.6Z" transform="translate(-0.001 14.183)" fill="#1a1818"/>
      <path id="Path_605" data-name="Path 605" d="M16.538,77.734l10.538,4.688-.045-17.245-8.3-5.211Z" transform="translate(3.637 13.192)" fill="#1a1818"/>
      <path id="Path_606" data-name="Path 606" d="M16.538,77.734l10.538,4.688-.045-17.245-8.3-5.211Z" transform="translate(3.637 13.192)" fill="none" stroke="#fff" stroke-linecap="round" stroke-linejoin="round" stroke-width="0.659"/>
      <path id="Path_607" data-name="Path 607" d="M84.343,64.493l30.146-.022-3.087,8.8,2.6,8H83.891Z" transform="translate(18.454 14.183)" fill="#1a1818"/>
      <path id="Path_608" data-name="Path 608" d="M94.336,77.762,83.723,82.3l.045-17.246,8.3-5.211Z" transform="translate(18.417 13.164)" fill="#1a1818"/>
      <path id="Path_609" data-name="Path 609" d="M94.336,77.762,83.723,82.3l.045-17.246,8.3-5.211Z" transform="translate(18.417 13.164)" fill="none" stroke="#fff" stroke-linecap="round" stroke-linejoin="round" stroke-width="0.659"/>
      <rect id="Rectangle_260" data-name="Rectangle 260" width="92.579" height="18.604" transform="translate(20.175 72.322)" fill="#1a1818"/>
      <rect id="Rectangle_261" data-name="Rectangle 261" width="92.579" height="18.604" transform="translate(20.175 72.322)" fill="none" stroke="#fff" stroke-linecap="square" stroke-linejoin="round" stroke-width="0.659"/>
      <path id="Path_610" data-name="Path 610" d="M5.815,74.7V68.6H8.472v.925H6.825V70.96H8.377v.922H6.825v1.875H8.548V74.7Z" transform="translate(1.278 15.091)" fill="#fff"/>
      <path id="Path_611" data-name="Path 611" d="M9.918,74.853c-.847,0-1.523-.338-1.523-1.39v-.892h1c0,.284-.009.57-.009.858,0,.361.162.561.5.561.537,0,.505-.46.505-.91a.817.817,0,0,0-.349-.82l-.955-.708c-.032-.026-.07-.07-.1-.1a1.609,1.609,0,0,1-.551-1.382,2.323,2.323,0,0,1,.132-.838,1.428,1.428,0,0,1,1.375-.743,1.287,1.287,0,0,1,1.336.848,3.794,3.794,0,0,1,.063,1.071H10.33v-.44c0-.372-.055-.622-.444-.622-.365,0-.457.224-.457.6a.8.8,0,0,0,.318.787l.978.75a2.392,2.392,0,0,1,.356.346,1.985,1.985,0,0,1,.312,1.459c0,1.107-.466,1.557-1.476,1.557" transform="translate(1.846 15.068)" fill="#fff"/>
      <path id="Path_612" data-name="Path 612" d="M13.11,69.482V74.7H12.093V69.482H11.084V68.6h3.044v.881Z" transform="translate(2.437 15.091)" fill="#fff"/>
      <rect id="Rectangle_262" data-name="Rectangle 262" width="0.909" height="1.115" transform="translate(16.588 88.676)" fill="#fff"/>
      <path id="Path_613" data-name="Path 613" d="M94.264,74.4v-.134a3.5,3.5,0,0,1,.057-.661,2.89,2.89,0,0,1,1.024-1.743c.143-.143.294-.285.436-.428a.934.934,0,0,0,.4-.813v-.637c0-.278-.093-.487-.412-.487-.368,0-.468.209-.468.536V70.7H94.38v-.705a1.685,1.685,0,0,1,.068-.5,1.228,1.228,0,0,1,1.248-.736,1.325,1.325,0,0,1,1.333.661,2,2,0,0,1,.109.545V70.7a1.268,1.268,0,0,1-.434,1.08c-.185.2-.361.387-.547.57-.361.362-.77.662-.813,1.216H97.2V74.4Z" transform="translate(20.736 15.125)" fill="#fff"/>
      <path id="Path_614" data-name="Path 614" d="M98.591,74.479c-.982,0-1.483-.386-1.483-1.375V70.22a1.99,1.99,0,0,1,.084-.67,1.273,1.273,0,0,1,1.282-.8,1.3,1.3,0,0,1,1.39.786,2.008,2.008,0,0,1,.068.6V73.13a1.232,1.232,0,0,1-1.341,1.349m.377-1.341V70.112c0-.335-.01-.627-.437-.627-.317,0-.451.2-.451.493v3.229c0,.31.092.517.443.517.312,0,.445-.216.445-.5Z" transform="translate(21.361 15.125)" fill="#fff"/>
      <path id="Path_615" data-name="Path 615" d="M101.38,74.479c-.98,0-1.482-.386-1.482-1.375V70.22a1.989,1.989,0,0,1,.083-.67,1.275,1.275,0,0,1,1.283-.8,1.307,1.307,0,0,1,1.392.786,2.09,2.09,0,0,1,.066.6V73.13a1.232,1.232,0,0,1-1.342,1.349m.377-1.341V70.112c0-.335-.009-.627-.434-.627-.318,0-.454.2-.454.493v3.229c0,.31.093.517.444.517.312,0,.444-.216.444-.5Z" transform="translate(21.975 15.125)" fill="#fff"/>
      <path id="Path_616" data-name="Path 616" d="M104.1,74.479c-.73,0-1.409-.309-1.409-1.148v-.68h.964v.6c0,.334.127.487.478.487.31,0,.418-.17.418-.454v-.83c0-.721-.316-.7-.921-.7V71.1h.2c.805,0,.686-.487.686-1.1,0-.3-.066-.5-.417-.5-.285,0-.437.126-.437.411V70.5h-.92V69.81c0-.8.72-1.055,1.39-1.055.714,0,1.359.326,1.359,1.121v.645c0,.6-.235.782-.806.875.7.107.839.251.839.964v.847c0,.871-.62,1.272-1.425,1.272" transform="translate(22.588 15.125)" fill="#fff"/>
      <path id="Path_617" data-name="Path 617" d="M28.142,73.338c-.276,0-.52-.016-.793-.032-.4-.03-.764-.045-1.16-.106a6,6,0,0,1-4.587-3,5.714,5.714,0,0,1-.579-2.6,5.5,5.5,0,0,1,1.205-3.537c1.462-1.829,3.8-2.3,6.019-2.3,2.591,0,5.564.55,6.417,3.4l-3.567.639a2.8,2.8,0,0,0-2.743-1.586,3.145,3.145,0,0,0-3.292,3.385,3.26,3.26,0,0,0,1.63,2.985,3.65,3.65,0,0,0,4.177-.852,3.687,3.687,0,0,0,.318-.626l3.676.381c-.932,3.079-3.842,3.858-6.722,3.858" transform="translate(4.623 13.585)" fill="#fff"/>
      <path id="Path_618" data-name="Path 618" d="M41.875,72.888,41.3,71.137H37.179L36.6,72.888H32.364l4.648-10.759H41.4l4.664,10.759Zm-2.652-7.771-1.235,3.642h2.5Z" transform="translate(7.118 13.668)" fill="#fff"/>
      <path id="Path_619" data-name="Path 619" d="M53.261,72.888c-1.74-1.964-3.522-3.887-5.168-5.929.031,1.143.061,2.286.061,3.414v2.516H44.343V62.129H47.53l3.307,3.626c.67.732,1.31,1.465,1.9,2.258-.045-1.144-.074-2.3-.074-3.445V62.129h3.794V72.888Z" transform="translate(9.754 13.668)" fill="#fff"/>
      <path id="Path_620" data-name="Path 620" d="M62.82,64.536v8.352H58.947V64.536H55.123V62.129H66.63v2.407Z" transform="translate(12.125 13.667)" fill="#fff"/>
      <path id="Path_621" data-name="Path 621" d="M75.148,72.976a10.784,10.784,0,0,1-3.032.351c-2.151,0-4.512-.443-5.93-2.212A5.149,5.149,0,0,1,65.028,67.7a5.418,5.418,0,0,1,4.022-5.5,11,11,0,0,1,3.156-.4c2.408,0,4.787.473,6.219,2.578a5.647,5.647,0,0,1,.914,3.155,5.487,5.487,0,0,1-4.192,5.441m-3-8.78a3.382,3.382,0,0,0,.077,6.753,3.437,3.437,0,0,0,1.569-.305,3.382,3.382,0,0,0,1.585-3.078,3.056,3.056,0,0,0-3.231-3.37" transform="translate(14.304 13.596)" fill="#fff"/>
      <path id="Path_622" data-name="Path 622" d="M86.836,72.888C85.1,70.924,83.315,69,81.669,66.959c.029,1.143.061,2.286.061,3.414v2.516H77.919V62.129h3.187l3.3,3.626c.67.732,1.311,1.465,1.907,2.258-.045-1.144-.076-2.3-.076-3.445V62.129h3.793V72.888Z" transform="translate(17.14 13.668)" fill="#fff"/>
      <path id="Path_623" data-name="Path 623" d="M59.136,31.246H55.364a2.151,2.151,0,0,1-.45-.038.67.67,0,0,1-.494-.677.692.692,0,0,1,.5-.675,1.441,1.441,0,0,1,.429-.034H60.7V28.733H55.263a4.088,4.088,0,0,0-.54.027,1.8,1.8,0,0,0-.022,3.557,4.879,4.879,0,0,0,.615.026H58.97c.052,0,.238,0,.284.01a.738.738,0,0,1,.661.764.745.745,0,0,1-.625.747c-.055.01-.248.015-.311.015H53.39v1.1h5.678c.07,0,.383,0,.448-.009a1.879,1.879,0,0,0,.088-3.706,4.667,4.667,0,0,0-.467-.02" transform="translate(11.703 6.321)" fill="#fff"/>
      <path id="Path_624" data-name="Path 624" d="M50.288,31.246H46.516a2.151,2.151,0,0,1-.45-.038.67.67,0,0,1-.494-.677.692.692,0,0,1,.5-.675,1.441,1.441,0,0,1,.429-.034h5.351V28.733H46.415a4.088,4.088,0,0,0-.54.027,1.8,1.8,0,0,0-.022,3.557,4.879,4.879,0,0,0,.615.026h3.655c.052,0,.237,0,.284.01a.765.765,0,0,1,.037,1.51c-.055.01-.248.015-.311.015H44.541v1.1h5.68c.067,0,.381,0,.447-.009a1.879,1.879,0,0,0,.088-3.706,4.668,4.668,0,0,0-.467-.02" transform="translate(9.757 6.321)" fill="#fff"/>
      <rect id="Rectangle_263" data-name="Rectangle 263" width="1.203" height="6.249" transform="translate(49.885 35.053)" fill="#fff"/>
      <path id="Path_625" data-name="Path 625" d="M38.311,33.725l-4.94-4.993H31.689V34.98h1.2V29.955l4.974,5.025h1.648V28.731h-1.2Z" transform="translate(6.97 6.32)" fill="#fff"/>
      <path id="Path_626" data-name="Path 626" d="M77.333,33.725l-4.94-4.993H70.711V34.98h1.2V29.955l4.974,5.025h1.648V28.731h-1.2Z" transform="translate(15.554 6.32)" fill="#fff"/>
      <path id="Path_627" data-name="Path 627" d="M65.249,28.732l-3.9,6.248h1.468l.719-1.157h4.846l.72,1.157h1.466l-3.9-6.248Zm-1.119,4.1,1.828-2.935,1.825,2.935Z" transform="translate(13.494 6.321)" fill="#fff"/>
    </g>
  </g>
</svg>
