<svg width="123" height="38" viewBox="0 0 123 38" fill="none" xmlns="http://www.w3.org/2000/svg">
<path d="M0.106445 30.3905C0.106445 27.8001 2.21272 25.6992 4.80977 25.6992H11.4558V37.5293H0.106445V30.3905Z" fill="#FACC15"/>
<path d="M1.84474 6.57807C3.05125 4.77297 4.59517 3.61036 4.59517 3.61036C5.50516 2.92707 6.5174 2.40695 7.75458 1.93783C10.7708 0.612041 15.1368 2.90667 15.1368 2.90667C15.1368 2.90667 14.4313 3.11064 13.6644 3.64095C12.642 4.35484 12.1818 5.39507 11.8649 6.32311C11.0674 8.59735 11.1185 10.6574 11.2207 16.2359C11.231 16.7866 11.2514 17.9186 11.2616 18.4184C9.99377 18.4897 8.09199 18.7549 5.97549 19.6728C3.34776 20.8048 1.6198 22.4059 0.689359 23.4257C-0.711415 15.3894 0.198579 9.03587 1.84474 6.57807Z" fill="#FACC15"/>
<path d="M15.5765 26.1078C23.654 26.1078 30.4534 20.1009 30.4534 12.9519C30.4534 5.80286 23.7971 0 15.5765 0C12.6625 0 9.93255 0.734281 7.64223 1.99888C8.82829 1.66233 10.1064 1.55015 11.4356 1.73372C15.781 2.34562 19.2063 5.25215 19.2063 10.6573C19.2063 13.4312 17.4681 17.1842 13.8895 19.0709C12.2433 19.9378 10.5358 20.5497 8.96121 21.1208C7.11055 21.7837 5.43371 22.3854 4.27833 23.2522C4.20676 23.3032 4.12496 23.3644 4.05339 23.4256C2.88778 24.2823 0.750831 26.0058 0.188477 29.4732C0.392969 29.0143 0.648585 28.6573 0.801954 28.382C1.5688 27.2296 2.49924 26.6177 3.5626 26.3627C4.4317 26.1078 6.56864 26.1078 7.44796 26.1078H15.5765Z" fill="#FEF08A"/>
<path d="M39.6371 24.7656V13.4056H44.1811C45.5465 13.4056 46.6131 13.7363 47.3811 14.3976C48.1598 15.059 48.5491 15.9656 48.5491 17.1176C48.5491 18.2696 48.1598 19.1816 47.3811 19.8536C46.6131 20.515 45.5465 20.8456 44.1811 20.8456H42.0691V24.7656H39.6371ZM42.0691 18.7976H44.0371C44.6771 18.7976 45.1731 18.659 45.5251 18.3816C45.8771 18.0936 46.0531 17.6723 46.0531 17.1176C46.0531 16.563 45.8771 16.147 45.5251 15.8696C45.1731 15.5923 44.6771 15.4536 44.0371 15.4536H42.0691V18.7976ZM51.9438 24.9576C51.0478 24.9576 50.3224 24.755 49.7678 24.3496C49.2131 23.9336 48.9358 23.3576 48.9358 22.6216C48.9358 21.8643 49.1704 21.283 49.6398 20.8776C50.1198 20.4616 50.8238 20.1576 51.7518 19.9656L54.5198 19.4216C54.5198 18.3016 54.0344 17.7416 53.0638 17.7416C52.1784 17.7416 51.6558 18.1523 51.4958 18.9736L49.0798 18.8616C49.2398 17.923 49.6611 17.2136 50.3438 16.7336C51.0371 16.243 51.9438 15.9976 53.0638 15.9976C54.3438 15.9976 55.3038 16.307 55.9438 16.9256C56.5944 17.5336 56.9198 18.419 56.9198 19.5816V22.5096C56.9198 22.755 56.9571 22.9203 57.0318 23.0056C57.1171 23.0803 57.2398 23.1176 57.3998 23.1176H57.6398V24.7656C57.5651 24.787 57.4424 24.8083 57.2718 24.8296C57.1118 24.851 56.9518 24.8616 56.7917 24.8616C56.3438 24.8616 55.9438 24.7656 55.5918 24.5736C55.2398 24.371 55.0104 23.9976 54.9038 23.4536C54.6904 23.9123 54.3278 24.2803 53.8158 24.5576C53.3038 24.8243 52.6798 24.9576 51.9438 24.9576ZM52.5198 23.3096C53.1171 23.3096 53.5971 23.1336 53.9598 22.7816C54.3331 22.4296 54.5198 21.9496 54.5198 21.3416V20.9256L52.5677 21.3416C51.7891 21.491 51.3998 21.843 51.3998 22.3976C51.3998 23.0056 51.7731 23.3096 52.5198 23.3096ZM62.0835 27.3576C60.8568 27.3576 59.9235 27.1336 59.2835 26.6856C58.6435 26.2376 58.2275 25.6616 58.0355 24.9576L60.4995 24.7816C60.5848 25.059 60.7448 25.2776 60.9795 25.4376C61.2142 25.5976 61.5822 25.6776 62.0835 25.6776C62.6488 25.6776 63.0862 25.539 63.3955 25.2616C63.7048 24.995 63.8595 24.563 63.8595 23.9656V23.0536C63.6568 23.4483 63.3315 23.7683 62.8835 24.0136C62.4355 24.2483 61.9342 24.3656 61.3795 24.3656C60.6755 24.3656 60.0515 24.195 59.5075 23.8536C58.9635 23.5123 58.5368 23.027 58.2275 22.3976C57.9288 21.7683 57.7795 21.0323 57.7795 20.1896C57.7795 19.3683 57.9288 18.643 58.2275 18.0136C58.5368 17.3843 58.9582 16.8936 59.4915 16.5416C60.0355 16.179 60.6542 15.9976 61.3475 15.9976C61.9768 15.9976 62.5048 16.1363 62.9315 16.4136C63.3688 16.691 63.6995 17.059 63.9235 17.5176V16.1896H66.2755V23.9176C66.2755 24.6856 66.0995 25.3256 65.7475 25.8376C65.3955 26.3496 64.9048 26.7283 64.2755 26.9736C63.6462 27.2296 62.9155 27.3576 62.0835 27.3576ZM62.0675 22.5896C62.6115 22.5896 63.0488 22.3816 63.3795 21.9656C63.7102 21.539 63.8755 20.9416 63.8755 20.1736C63.8862 19.427 63.7262 18.8403 63.3955 18.4136C63.0648 17.9763 62.6222 17.7576 62.0675 17.7576C61.4915 17.7576 61.0435 17.9763 60.7235 18.4136C60.4035 18.851 60.2435 19.4376 60.2435 20.1736C60.2435 20.9096 60.4088 21.4963 60.7395 21.9336C61.0702 22.371 61.5128 22.5896 62.0675 22.5896ZM71.5839 24.9576C70.7092 24.9576 69.9465 24.771 69.2959 24.3976C68.6559 24.0243 68.1545 23.507 67.7919 22.8456C67.4399 22.1736 67.2639 21.3843 67.2639 20.4776C67.2639 19.5816 67.4399 18.7976 67.7919 18.1256C68.1439 17.4536 68.6399 16.931 69.2799 16.5576C69.9305 16.1843 70.6932 15.9976 71.5679 15.9976C72.4212 15.9976 73.1625 16.1843 73.7919 16.5576C74.4212 16.931 74.9065 17.4643 75.2479 18.1576C75.5999 18.851 75.7759 19.6776 75.7759 20.6376V21.1176H69.7439C69.7759 21.8003 69.9572 22.307 70.2879 22.6376C70.6292 22.9683 71.0772 23.1336 71.6319 23.1336C72.4639 23.1336 72.9972 22.787 73.2319 22.0936L75.6479 22.2376C75.4132 23.091 74.9332 23.7576 74.2079 24.2376C73.4932 24.7176 72.6185 24.9576 71.5839 24.9576ZM69.7439 19.6456H73.3119C73.2799 19.0163 73.1039 18.547 72.7839 18.2376C72.4745 17.9283 72.0692 17.7736 71.5679 17.7736C71.0665 17.7736 70.6505 17.939 70.3199 18.2696C69.9999 18.5896 69.8079 19.0483 69.7439 19.6456ZM80.184 24.7656V13.4056H88.024V15.4536H82.616V18.2056H87.736V20.2216H82.616V24.7656H80.184ZM91.1398 24.7656C90.4358 24.7656 89.8864 24.595 89.4918 24.2536C89.0971 23.9016 88.8997 23.3256 88.8997 22.5256V13.4056H91.2998V22.2696C91.2998 22.5256 91.3584 22.707 91.4758 22.8136C91.5931 22.9203 91.7638 22.9736 91.9878 22.9736H92.5638V24.7656H91.1398ZM97.1471 24.9576C96.2725 24.9576 95.5098 24.7763 94.8591 24.4136C94.2085 24.0403 93.7018 23.5176 93.3391 22.8456C92.9765 22.1736 92.7951 21.3843 92.7951 20.4776C92.7951 19.571 92.9765 18.787 93.3391 18.1256C93.7018 17.4536 94.2085 16.931 94.8591 16.5576C95.5098 16.1843 96.2725 15.9976 97.1471 15.9976C98.0218 15.9976 98.7845 16.1843 99.4351 16.5576C100.096 16.931 100.603 17.4536 100.955 18.1256C101.318 18.787 101.499 19.571 101.499 20.4776C101.499 21.3843 101.318 22.1736 100.955 22.8456C100.603 23.5176 100.096 24.0403 99.4351 24.4136C98.7845 24.7763 98.0218 24.9576 97.1471 24.9576ZM97.1471 23.1176C97.7445 23.1176 98.2085 22.8883 98.5391 22.4296C98.8698 21.9603 99.0351 21.3096 99.0351 20.4776C99.0351 19.6456 98.8698 19.0003 98.5391 18.5416C98.2085 18.0723 97.7445 17.8376 97.1471 17.8376C96.5498 17.8376 96.0858 18.0723 95.7551 18.5416C95.4245 19.0003 95.2591 19.6456 95.2591 20.4776C95.2591 21.3096 95.4245 21.9603 95.7551 22.4296C96.0858 22.8883 96.5498 23.1176 97.1471 23.1176ZM104.005 24.7656L101.461 16.1896H103.877L105.349 21.9976L106.933 16.1896H108.885L110.469 21.9976L111.957 16.1896H114.373L111.829 24.7656H109.493L107.909 19.4056L106.325 24.7656H104.005ZM118.47 24.9576C117.137 24.9576 116.129 24.6856 115.446 24.1416C114.774 23.5976 114.406 22.9043 114.342 22.0616L116.774 21.9816C116.849 22.387 117.019 22.7016 117.286 22.9256C117.553 23.1496 117.947 23.2616 118.47 23.2616C118.897 23.2616 119.227 23.1923 119.462 23.0536C119.707 22.915 119.83 22.7016 119.83 22.4136C119.83 22.2323 119.787 22.083 119.702 21.9656C119.617 21.8376 119.446 21.731 119.19 21.6456C118.945 21.5496 118.577 21.4643 118.086 21.3896C117.179 21.2403 116.47 21.0536 115.958 20.8296C115.446 20.6056 115.083 20.3283 114.87 19.9976C114.657 19.6563 114.55 19.2403 114.55 18.7496C114.55 17.9283 114.865 17.267 115.494 16.7656C116.134 16.2536 117.089 15.9976 118.358 15.9976C119.574 15.9976 120.497 16.275 121.126 16.8296C121.755 17.3843 122.129 18.0883 122.246 18.9416L119.83 19.0376C119.777 18.6216 119.622 18.2963 119.366 18.0616C119.11 17.8163 118.769 17.6936 118.342 17.6936C117.915 17.6936 117.585 17.7843 117.35 17.9656C117.126 18.1363 117.014 18.3656 117.014 18.6536C117.014 18.963 117.131 19.1976 117.366 19.3576C117.611 19.507 118.027 19.6243 118.614 19.7096C119.531 19.8483 120.257 20.0296 120.79 20.2536C121.334 20.4776 121.723 20.7603 121.958 21.1016C122.193 21.443 122.31 21.8643 122.31 22.3656C122.31 23.1976 121.958 23.8376 121.254 24.2856C120.561 24.7336 119.633 24.9576 118.47 24.9576Z" fill="#FAFAFA"/>
</svg>
