<svg width="35" height="37" viewBox="0 0 35 37" fill="none" xmlns="http://www.w3.org/2000/svg"><mask id="mask0" mask-type="alpha" maskUnits="userSpaceOnUse" x="0" y="0" width="34" height="37"><path fill-rule="evenodd" clip-rule="evenodd" d="M0.739136 0.634033H33.4849V36.2207H0.739136V0.634033Z" fill="white"/></mask><g mask="url(#mask0)"><path fill-rule="evenodd" clip-rule="evenodd" d="M26.3778 2.92521C33.9633 7.20939 35.7287 16.8162 30.4513 26.5356C25.8128 35.0797 15.6848 38.7285 8.1382 34.3787C0.589972 30.0281 -0.882994 17.8918 2.36063 10.9079C7.07048 0.766665 17.997 -1.80949 26.3778 2.92521Z" fill="#007FA3"/></g><path fill-rule="evenodd" clip-rule="evenodd" d="M16.9321 27.9179C16.6954 27.7384 16.4296 27.615 16.162 27.5629C16.0707 27.5456 15.9771 27.536 15.8849 27.536C15.3793 27.536 14.884 27.8066 14.56 28.2616C14.2891 28.6392 14.1785 29.0905 14.2503 29.5289C14.2959 29.8076 14.4033 30.05 14.5618 30.2305C14.74 30.4349 15.0124 30.5905 15.3498 30.6843C15.5453 30.737 15.7455 30.765 15.9457 30.765H15.946C16.382 30.765 16.7743 30.638 17.0792 30.3969C17.4335 30.116 17.6265 29.7151 17.6222 29.269C17.6184 28.7481 17.3601 28.2423 16.9321 27.9179ZM26.7537 9.86922C28.2745 11.45 28.7483 13.8488 28.4838 15.816C28.1814 18.0593 26.7849 20.1351 24.4617 21.5114C22.6194 22.6028 20.1992 23.0385 17.8175 23.0592C17.7985 23.4266 17.7232 24.6929 17.6852 24.8932C17.6293 25.1888 17.5231 25.3481 17.3929 25.5133C17.1372 25.8378 16.6936 26.0474 16.2528 26.1697C15.9025 26.2666 15.5561 26.3084 15.3104 26.3084C15.269 26.3084 15.2284 26.3061 15.1885 26.3012C14.9295 26.2726 14.6422 26.1543 14.4644 25.961C14.2869 25.7678 14.1862 25.5238 14.1626 25.2469L14.1429 24.997C14.0923 24.7816 13.8164 13.8811 13.8701 14.075C13.91 12.769 16.076 12.541 17.2513 12.7718C18.4289 13.003 18.1307 14.3959 18.0989 16.1083C18.0989 16.1083 18.043 18.3604 17.9344 20.7397C19.4338 20.6826 20.625 20.2665 21.7397 19.7273C23.9912 18.6407 25.1831 16.9743 25.1831 14.5195C25.1831 12.0645 22.728 9.31553 18.1998 9.31553C13.6713 9.31553 11.7275 10.4275 9.53486 12.1934C9.04053 12.5915 8.65981 12.9927 8.2998 13.2568C7.93963 13.521 6.98342 13.5615 6.72702 12.9434C6.41812 12.1981 6.99551 11.3676 7.33462 10.9655C7.86694 10.3345 9.18056 9.06356 10.6365 8.32513C12.3039 7.47778 14.3439 6.56521 17.1838 6.49545C19.7531 6.43242 23.8098 6.63497 26.7319 9.84804" fill="white"/></svg>