<svg width="193" height="67" viewBox="0 0 193 67" xmlns="http://www.w3.org/2000/svg"><g id="Symbols" stroke="none" stroke-width="1" fill="none" fill-rule="evenodd"><g id="MOBILE/FOOTER" transform="translate(-40 -44)" fill="#FFF"><g id="Group-25" transform="translate(39.506 44)"><path d="M191.013 43.214h-.519V43h1.258v.214h-.519V45h-.22v-1.786zM192.06 43h.256l.333 1.073.126.408h.01l.121-.408.33-1.073h.257v2h-.207v-1.1c0-.177.015-.416.03-.592h-.012l-.138.446-.331 1.044h-.123l-.333-1.044-.136-.446h-.01c.01.176.028.415.028.592V45h-.201v-2z" id="Fill-1"/><path d="M182.274 59c-3.685 0-6.368-1.981-6.78-5.204h2.535c.325 1.774 2.063 2.867 4.245 2.867 2.359 0 3.804-1.153 3.804-2.483 0-1.066-.414-1.833-4.129-2.367-3.684-.503-5.925-1.42-5.925-4.287 0-2.19 1.888-4.526 5.955-4.526 3.508 0 5.868 1.776 6.192 4.762h-2.536c-.353-1.626-1.798-2.455-3.656-2.455-2.004 0-3.448.947-3.448 2.13 0 1.094.854 1.478 3.832 1.95 3.36.534 6.131 1.185 6.131 4.644 0 3.046-2.594 4.969-6.22 4.969" id="Fill-3"/><path d="M172.494 59h-2.539v-9.484c0-2.394-1.33-4.152-3.809-4.152-2.359 0-4.082 1.758-4.082 4.091V59h-2.57V43.394h2.48v1.697c1.057-1.302 2.66-2.091 4.535-2.091 3.807 0 5.985 2.728 5.985 6.607V59z" id="Fill-5"/><path d="M152.87 51.059c0-3.17-2.409-5.748-5.375-5.748-2.935 0-5.344 2.577-5.344 5.748 0 3.111 2.41 5.63 5.344 5.63 2.966 0 5.375-2.519 5.375-5.63m2.624 0c0 4.384-3.458 7.941-7.999 7.941-4.51 0-8-3.557-8-7.941 0-4.445 3.49-8.059 8-8.059 4.54 0 8 3.614 8 8.059" id="Fill-7"/><path d="M133.494 59h3V43.415h-3V59zm0-17.944h3V38h-3v3.056z" id="Fill-9"/><path d="M129.494 58.947c-3.517.425-5.948-1.728-5.948-5.698V45.79h-2.052v-2.456h2.052V40h2.46v3.334h3.429v2.456h-3.43v7.459c0 2.758 1.642 3.455 3.49 3.335v2.363z" id="Fill-11"/><path d="M111.464 45.395c-2.997 0-5.345 2.544-5.345 5.65 0 3.045 2.348 5.56 5.345 5.56 2.933 0 5.404-2.515 5.404-5.56 0-3.106-2.47-5.65-5.404-5.65zm8.03 13.22h-2.533v-2.456c-1.112 1.569-3.15 2.841-5.497 2.841-4.572 0-7.97-3.579-7.97-7.984 0-4.408 3.398-8.016 7.97-8.016 2.348 0 4.385 1.273 5.497 2.81v-2.426h2.533v15.23z" id="Fill-12"/><path d="M102.494 45.583c-2.848-.152-5.28 1.272-5.28 4.39V59h-2.72V43.402h2.624v1.756c1.249-1.666 3.488-2.332 5.376-2.12v2.545z" id="Fill-13"/><path d="M82.464 45.429c-2.998 0-5.346 2.642-5.346 5.93 0 3.228 2.348 5.87 5.346 5.87 2.934 0 5.405-2.642 5.405-5.87 0-3.288-2.47-5.93-5.405-5.93zm8.03 13.06c0 5.071-3.305 8.511-8.186 8.511-3.767 0-6.702-1.996-7.506-5.224h2.75c1.051 2.367 3.582 2.704 4.756 2.704 4.078 0 5.56-3.134 5.56-5.992V56.83c-1.142 1.535-3.118 2.797-5.404 2.797-4.571 0-7.97-3.719-7.97-8.298 0-4.578 3.399-8.329 7.97-8.329 2.347 0 4.386 1.323 5.498 2.92v-2.519h2.532v15.087z" id="Fill-14"/><path d="M69.596 49.43c-.647-2.488-2.805-4.148-5.119-4.148-2.187 0-4.5 1.54-5.177 4.147h10.296zm2.527 4.474C71.013 57.163 68.301 59 64.632 59c-4.562 0-8.138-3.497-8.138-7.97 0-4.414 3.576-8.03 7.983-8.03 4.101 0 8.048 3.259 8.017 8.681H59.145c.34 3.17 2.867 5.036 5.487 5.036 2.252 0 3.854-1.036 4.718-2.813h2.773z" id="Fill-15"/><path d="M53.494 58.947c-3.516.425-5.95-1.728-5.95-5.698V45.79h-2.05v-2.456h2.05V40h2.462v3.334h3.43v2.456h-3.43v7.459c0 2.758 1.642 3.455 3.488 3.335v2.363z" id="Fill-16"/><path d="M42.494 59h-2.54v-9.484c0-2.394-1.33-4.152-3.808-4.152-2.359 0-4.082 1.758-4.082 4.091V59h-2.57V43.394h2.478v1.697C33.032 43.79 34.633 43 36.508 43c3.809 0 5.986 2.728 5.986 6.607V59z" id="Fill-17"/><path d="M22.494 41.056h3V38h-3v3.056zm0 17.944h3V43.416h-3V59z" id="Fill-18"/><path d="M173.494 5.842c-4.982-.284-9.239 2.385-9.239 8.235V31h-4.76V1.754h4.591v3.292c2.184-3.124 6.104-4.372 9.408-3.974v4.77z" id="Fill-19"/><path d="M147.06 13.457c-1.213-4.82-5.258-8.037-9.595-8.037-4.104 0-8.44 2.987-9.71 8.037h19.305zm4.74 8.67C149.72 28.44 144.634 32 137.754 32c-8.553 0-15.26-6.774-15.26-15.44 0-8.554 6.707-15.56 14.971-15.56 7.688 0 15.086 6.314 15.029 16.82h-25.028c.634 6.143 5.375 9.759 10.288 9.759 4.22 0 7.225-2.008 8.844-5.452h5.202z" id="Fill-20"/><path id="Fill-21" d="M107.261 23.79L113.446 2h5.048l-8.736 29h-5.05L98.464 8.813 92.224 31h-4.992L78.494 2h5.05l6.241 21.79L96.027 2h4.993z"/><path d="M70.572 16.615c0-6.142-4.517-11.136-10.077-11.136-5.503 0-10.02 4.994-10.02 11.136 0 6.028 4.517 10.908 10.02 10.908 5.56 0 10.077-4.88 10.077-10.908m4.922 0c0 8.496-6.486 15.385-15 15.385-8.455 0-15-6.889-15-15.385 0-8.61 6.545-15.615 15-15.615 8.514 0 15 7.005 15 15.615" id="Fill-22"/><path d="M21.403 17H2.586C1.43 17 .494 16.104.494 15s.937-2 2.092-2h18.817c1.155 0 2.091.896 2.091 2s-.936 2-2.09 2" id="Fill-23"/><path d="M11.658 48a2.155 2.155 0 01-2.164-2.146v-24.57a2.15 2.15 0 011.734-2.105 2.168 2.168 0 012.422 1.266c1.841 4.313 6.08 7.1 10.798 7.1 6.462 0 11.718-5.213 11.718-11.624 0-6.41-5.256-11.626-11.718-11.626-4.463 0-8.481 2.462-10.482 6.425a2.176 2.176 0 01-2.904.959 2.14 2.14 0 01-.966-2.882C12.836 3.37 18.336 0 24.448 0c8.848 0 16.046 7.143 16.046 15.921 0 8.777-7.198 15.918-16.046 15.918a16.102 16.102 0 01-10.627-3.983v17.998A2.156 2.156 0 0111.658 48" id="Fill-24"/></g></g></g></svg>