<svg id="Ebene_1" data-name="Ebene 1" xmlns="http://www.w3.org/2000/svg" xmlns:xlink="http://www.w3.org/1999/xlink" viewBox="0 0 595.28 254.99"><defs><style>.cls-1{fill:#023c59;}.cls-2{fill:#f6a500;}.cls-3{fill:url(#Neues_Verlaufsfeld_3);}.cls-4{fill:url(#Neues_Verlaufsfeld_3-2);}.cls-5{fill:#005d8c;}.cls-6{fill:url(#linear-gradient);}.cls-7{fill:url(#Neues_Verlaufsfeld_3-3);}.cls-8{fill:url(#linear-gradient-2);}.cls-11,.cls-12,.cls-13,.cls-14,.cls-18,.cls-20,.cls-21,.cls-22,.cls-26,.cls-9{opacity:0.6;}.cls-9{fill:url(#linear-gradient-3);}.cls-10{fill:url(#Neues_Verlaufsfeld_3-4);}.cls-11{fill:url(#linear-gradient-4);}.cls-12{fill:url(#linear-gradient-5);}.cls-13{fill:url(#linear-gradient-6);}.cls-14{fill:url(#linear-gradient-7);}.cls-15{fill:url(#Neues_Verlaufsfeld_3-5);}.cls-16{fill:url(#Neues_Verlaufsfeld_3-6);}.cls-17{fill:url(#Neues_Verlaufsfeld_3-7);}.cls-18{fill:url(#linear-gradient-8);}.cls-19{fill:url(#Neues_Verlaufsfeld_3-8);}.cls-20{fill:url(#linear-gradient-9);}.cls-21{fill:url(#linear-gradient-10);}.cls-22{fill:url(#linear-gradient-11);}.cls-23{fill:url(#Neues_Verlaufsfeld_3-9);}.cls-24{fill:url(#Neues_Verlaufsfeld_3-10);}.cls-25{fill:url(#Neues_Verlaufsfeld_3-11);}.cls-26{fill:url(#linear-gradient-12);}</style><linearGradient id="Neues_Verlaufsfeld_3" x1="68.6" y1="117.67" x2="44.92" y2="56.64" gradientUnits="userSpaceOnUse"><stop offset="0.25" stop-color="#088bcc"/><stop offset="0.83" stop-color="#00679b"/><stop offset="0.98" stop-color="#023c59"/></linearGradient><linearGradient id="Neues_Verlaufsfeld_3-2" x1="70.67" y1="130.09" x2="111.97" y2="88.8" xlink:href="#Neues_Verlaufsfeld_3"/><linearGradient id="linear-gradient" x1="110.32" y1="89.88" x2="153.78" y2="89.88" gradientUnits="userSpaceOnUse"><stop offset="0.01" stop-color="#ffec00"/><stop offset="0.74" stop-color="#ffd400"/></linearGradient><linearGradient id="Neues_Verlaufsfeld_3-3" x1="81.61" y1="112.62" x2="57.93" y2="51.59" xlink:href="#Neues_Verlaufsfeld_3"/><linearGradient id="linear-gradient-2" x1="110.32" y1="79.11" x2="153.78" y2="79.11" xlink:href="#linear-gradient"/><linearGradient id="linear-gradient-3" x1="134" y1="85.49" x2="153.43" y2="55.74" gradientUnits="userSpaceOnUse"><stop offset="0.01" stop-color="#fff"/><stop offset="0.98" stop-color="#fff" stop-opacity="0.2"/></linearGradient><linearGradient id="Neues_Verlaufsfeld_3-4" x1="89.23" y1="109.67" x2="65.55" y2="48.64" xlink:href="#Neues_Verlaufsfeld_3"/><linearGradient id="linear-gradient-4" x1="80.85" y1="50.79" x2="100.28" y2="21.03" xlink:href="#linear-gradient-3"/><linearGradient id="linear-gradient-5" x1="108.29" y1="70.83" x2="127.72" y2="41.07" xlink:href="#linear-gradient-3"/><linearGradient id="linear-gradient-6" x1="123.65" y1="80.86" x2="143.08" y2="51.1" xlink:href="#linear-gradient-3"/><linearGradient id="linear-gradient-7" x1="124.54" y1="81.44" x2="143.97" y2="51.69" xlink:href="#linear-gradient-3"/><linearGradient id="Neues_Verlaufsfeld_3-5" x1="109.91" y1="72.17" x2="145.74" y2="41.2" xlink:href="#Neues_Verlaufsfeld_3"/><linearGradient id="Neues_Verlaufsfeld_3-6" x1="107.44" y1="69.31" x2="143.27" y2="38.34" xlink:href="#Neues_Verlaufsfeld_3"/><linearGradient id="Neues_Verlaufsfeld_3-7" x1="116.44" y1="79.72" x2="152.27" y2="48.75" xlink:href="#Neues_Verlaufsfeld_3"/><linearGradient id="linear-gradient-8" x1="126.98" y1="83.03" x2="146.41" y2="53.28" xlink:href="#linear-gradient-3"/><linearGradient id="Neues_Verlaufsfeld_3-8" x1="110.26" y1="72.57" x2="146.09" y2="41.6" xlink:href="#Neues_Verlaufsfeld_3"/><linearGradient id="linear-gradient-9" x1="116.59" y1="76.48" x2="136.16" y2="46.53" xlink:href="#linear-gradient-3"/><linearGradient id="linear-gradient-10" x1="95.25" y1="62.32" x2="114.68" y2="32.56" xlink:href="#linear-gradient-3"/><linearGradient id="linear-gradient-11" x1="86.3" y1="56.47" x2="105.73" y2="26.71" xlink:href="#linear-gradient-3"/><linearGradient id="Neues_Verlaufsfeld_3-9" x1="89.35" y1="56.35" x2="106.35" y2="35.09" xlink:href="#Neues_Verlaufsfeld_3"/><linearGradient id="Neues_Verlaufsfeld_3-10" x1="92.03" y1="58.49" x2="109.04" y2="37.24" xlink:href="#Neues_Verlaufsfeld_3"/><linearGradient id="Neues_Verlaufsfeld_3-11" x1="92.14" y1="58.58" x2="109.14" y2="37.32" xlink:href="#Neues_Verlaufsfeld_3"/><linearGradient id="linear-gradient-12" x1="92.61" y1="60.67" x2="112.34" y2="30.46" xlink:href="#linear-gradient-3"/></defs><polygon class="cls-1" points="70.97 83.56 69.24 93.17 76.39 94.79 77.51 96.25 66.55 103.17 62.9 116.06 57.33 108.74 50.01 111.82 49.14 110.35 55.79 101.06 54.44 92.21 63.09 92.21 69.86 82.27 70.97 83.56"/><polygon class="cls-1" points="106.22 92.67 104.09 90.92 94.11 100.74 83.53 97.86 83.53 110.16 72.21 119.46 74.11 121.51 86.42 120.35 90.5 130.47 92.57 132.66 98.72 118.43 113.72 114.39 102.76 105.55 106.22 92.67"/><polygon class="cls-2" points="149.96 71.2 149.16 68.87 134.96 75.63 123.61 70.24 123.61 80.43 110.45 86.86 111.12 89.28 124.19 91.39 128.42 105.23 138.23 93.12 154.57 92.36 153.71 89.99 145.15 83.13 149.96 71.2"/><polygon class="cls-1" points="84.62 61.5 83.58 60.95 77.32 62.46 77.13 57.46 76.16 56.91 68.86 65.73 60.97 69 63.86 71.69 57.03 81.05 57.9 81.69 66.94 75.34 72.7 78.03 75.4 69 84.62 61.5"/><polygon class="cls-3" points="69.95 82.08 68.22 91.69 76.48 94.77 65.53 101.69 61.87 114.58 56.3 107.26 48.99 110.34 54.76 99.58 53.42 90.73 62.06 90.73 69.95 82.08"/><polygon class="cls-4" points="104.17 90.73 92.06 98.81 81.48 95.92 81.48 108.23 72.06 119.57 84.37 118.42 90.52 130.72 96.67 116.49 111.67 112.45 100.71 103.62 104.17 90.73"/><path class="cls-5" d="M157.48,158.65a16.89,16.89,0,0,1-1.62,7.59,15.58,15.58,0,0,1-4.37,5.45A18.92,18.92,0,0,1,145,175a27.61,27.61,0,0,1-7.89,1.1,28.29,28.29,0,0,1-5.28-.46,31.09,31.09,0,0,1-4.31-1.13,18.94,18.94,0,0,1-3.11-1.38,8.88,8.88,0,0,1-1.81-1.27,3.13,3.13,0,0,1-.78-1.59,14.12,14.12,0,0,1-.24-3c0-.88,0-1.61.09-2.21a6.43,6.43,0,0,1,.28-1.44,1.49,1.49,0,0,1,.5-.78,1.22,1.22,0,0,1,.75-.24,3.6,3.6,0,0,1,1.67.7,29.81,29.81,0,0,0,2.78,1.55,25,25,0,0,0,4.05,1.55,19.1,19.1,0,0,0,5.46.7,12.38,12.38,0,0,0,3.64-.49,7.93,7.93,0,0,0,2.74-1.38,5.88,5.88,0,0,0,1.72-2.2,7.17,7.17,0,0,0,.59-2.93,5.15,5.15,0,0,0-1-3.21,9.89,9.89,0,0,0-2.65-2.37,27.82,27.82,0,0,0-3.71-1.95c-1.39-.61-2.81-1.25-4.28-1.93a37.81,37.81,0,0,1-4.29-2.32,17.23,17.23,0,0,1-3.71-3.09,14.4,14.4,0,0,1-2.65-4.27,15.33,15.33,0,0,1-1-5.89,15.68,15.68,0,0,1,1.46-6.94,14.2,14.2,0,0,1,4-5,16.63,16.63,0,0,1,5.85-3,26.19,26.19,0,0,1,11.05-.68,26.56,26.56,0,0,1,3.65.8,21.24,21.24,0,0,1,3,1.15,7,7,0,0,1,1.73,1.06,2.87,2.87,0,0,1,.58.72,3.35,3.35,0,0,1,.25.79,8.24,8.24,0,0,1,.15,1.23c0,.49,0,1.11,0,1.84s0,1.52-.06,2.08a7.45,7.45,0,0,1-.21,1.4,1.63,1.63,0,0,1-.43.81,1,1,0,0,1-.74.25,3.56,3.56,0,0,1-1.48-.59c-.68-.4-1.52-.83-2.51-1.3a24.38,24.38,0,0,0-3.43-1.27,15.3,15.3,0,0,0-4.29-.57,10.39,10.39,0,0,0-3.18.44,6.66,6.66,0,0,0-2.27,1.23,5,5,0,0,0-1.36,1.89,6.16,6.16,0,0,0-.44,2.34,5.17,5.17,0,0,0,1,3.16,9.59,9.59,0,0,0,2.68,2.37,26.78,26.78,0,0,0,3.79,1.95q2.13.91,4.33,1.94a40.18,40.18,0,0,1,4.33,2.31,17.32,17.32,0,0,1,3.77,3.09,14.42,14.42,0,0,1,2.68,4.25A14.81,14.81,0,0,1,157.48,158.65Z"/><path class="cls-5" d="M202.24,166.79c0,.71,0,1.31-.07,1.8a7.94,7.94,0,0,1-.19,1.28,3.46,3.46,0,0,1-.34.91,4.08,4.08,0,0,1-.68.87,8.44,8.44,0,0,1-1.8,1.25,21.3,21.3,0,0,1-3.27,1.47,28.63,28.63,0,0,1-4.41,1.16,29.06,29.06,0,0,1-5.36.47,28.29,28.29,0,0,1-10.19-1.74,20.1,20.1,0,0,1-7.72-5.2,23.18,23.18,0,0,1-4.88-8.63,38.77,38.77,0,0,1-1.7-12.05A38.26,38.26,0,0,1,163.5,136a26,26,0,0,1,5.22-9.12,21.63,21.63,0,0,1,8-5.6,27,27,0,0,1,10.33-1.91,24.29,24.29,0,0,1,4.41.38,27.49,27.49,0,0,1,3.93,1,20.24,20.24,0,0,1,3.24,1.43,9.2,9.2,0,0,1,2,1.38,4.79,4.79,0,0,1,.78,1,3.11,3.11,0,0,1,.34,1,9.5,9.5,0,0,1,.19,1.4c.05.53.07,1.2.07,2s0,1.57-.09,2.16a5.43,5.43,0,0,1-.29,1.45,2.21,2.21,0,0,1-.51.8,1,1,0,0,1-.68.26,2.9,2.9,0,0,1-1.61-.75,29.69,29.69,0,0,0-2.53-1.65,20.62,20.62,0,0,0-3.69-1.66,15.79,15.79,0,0,0-5.11-.74,12.09,12.09,0,0,0-10.21,5.16,17.83,17.83,0,0,0-2.73,6,34.77,34.77,0,0,0,.06,16.31,16.25,16.25,0,0,0,2.84,5.84,11.57,11.57,0,0,0,4.46,3.41,14.7,14.7,0,0,0,5.87,1.13,17,17,0,0,0,5.14-.7,22.31,22.31,0,0,0,3.71-1.55q1.55-.85,2.55-1.53a3.18,3.18,0,0,1,1.54-.68,1.22,1.22,0,0,1,.68.17,1.35,1.35,0,0,1,.43.68,6.45,6.45,0,0,1,.25,1.42C202.21,165,202.24,165.77,202.24,166.79Z"/><path class="cls-5" d="M251.37,173.58a1.14,1.14,0,0,1-.28.76,1.92,1.92,0,0,1-.91.56,8.66,8.66,0,0,1-1.7.33,21.76,21.76,0,0,1-2.67.13,22.84,22.84,0,0,1-2.73-.13,8.22,8.22,0,0,1-1.7-.33,2,2,0,0,1-.89-.56,1.14,1.14,0,0,1-.28-.76V151.39H219.68v22.19a1.23,1.23,0,0,1-.26.76,1.8,1.8,0,0,1-.89.56,8.66,8.66,0,0,1-1.7.33,22.25,22.25,0,0,1-2.71.13,22.63,22.63,0,0,1-2.7-.13,8.63,8.63,0,0,1-1.71-.33,2,2,0,0,1-.92-.56,1.18,1.18,0,0,1-.27-.76V121.73a1.2,1.2,0,0,1,.27-.76,1.93,1.93,0,0,1,.92-.55,8.53,8.53,0,0,1,1.71-.34,22.63,22.63,0,0,1,2.7-.13,22.25,22.25,0,0,1,2.71.13,8.56,8.56,0,0,1,1.7.34,1.73,1.73,0,0,1,.89.55,1.25,1.25,0,0,1,.26.76v20.16h20.53V121.73a1.15,1.15,0,0,1,.28-.76,1.86,1.86,0,0,1,.89-.55,8.12,8.12,0,0,1,1.7-.34,22.84,22.84,0,0,1,2.73-.13,21.76,21.76,0,0,1,2.67.13,8.56,8.56,0,0,1,1.7.34,1.84,1.84,0,0,1,.91.55,1.15,1.15,0,0,1,.28.76Z"/><path class="cls-5" d="M304.83,171a15.27,15.27,0,0,1,.64,2.42,1.46,1.46,0,0,1-.34,1.33,2.82,2.82,0,0,1-1.66.56c-.79.07-1.88.1-3.26.1s-2.57,0-3.38-.06A7.94,7.94,0,0,1,295,175a1.59,1.59,0,0,1-.89-.53,3,3,0,0,1-.43-.89l-3.69-11H269.36l-3.48,10.74a3.48,3.48,0,0,1-.44,1,1.87,1.87,0,0,1-.89.64,6.86,6.86,0,0,1-1.74.32c-.75.05-1.74.08-2.95.08a27,27,0,0,1-3.06-.13,2.27,2.27,0,0,1-1.52-.61,1.63,1.63,0,0,1-.3-1.38,13.75,13.75,0,0,1,.64-2.38l16.92-48.7a4.25,4.25,0,0,1,.6-1.17,2.06,2.06,0,0,1,1.08-.68,8.71,8.71,0,0,1,2.06-.29c.87,0,2-.07,3.48-.07,1.66,0,3,0,4,.07a11,11,0,0,1,2.32.29,2.22,2.22,0,0,1,1.18.7,4.13,4.13,0,0,1,.62,1.28Zm-25.2-40.26h0L271.82,154h15.57Z"/><path class="cls-5" d="M352.1,154.66a25.71,25.71,0,0,1-1.49,9,17.68,17.68,0,0,1-4.37,6.75,19,19,0,0,1-7.12,4.2,30.37,30.37,0,0,1-9.76,1.44,31,31,0,0,1-9.29-1.29,17.86,17.86,0,0,1-7-3.93,17,17,0,0,1-4.35-6.55,25.47,25.47,0,0,1-1.51-9.19V121.73a1.25,1.25,0,0,1,.26-.76,1.75,1.75,0,0,1,.91-.55,9.13,9.13,0,0,1,1.72-.34,28,28,0,0,1,5.39,0,8.59,8.59,0,0,1,1.69.34,1.93,1.93,0,0,1,.92.55,1.2,1.2,0,0,1,.27.76v32.42a17.71,17.71,0,0,0,.81,5.66,10.41,10.41,0,0,0,2.31,4,9.46,9.46,0,0,0,3.61,2.35,13.13,13.13,0,0,0,4.68.79,12.85,12.85,0,0,0,4.71-.81,9.36,9.36,0,0,0,3.53-2.35,10.57,10.57,0,0,0,2.22-3.82,15.52,15.52,0,0,0,.79-5.15V121.73a1.24,1.24,0,0,1,.25-.76,1.77,1.77,0,0,1,.89-.55,8.8,8.8,0,0,1,1.72-.34,22.52,22.52,0,0,1,2.7-.13,21.51,21.51,0,0,1,2.65.13,8.51,8.51,0,0,1,1.67.34,1.73,1.73,0,0,1,.89.55,1.25,1.25,0,0,1,.26.76Z"/><path class="cls-5" d="M424.52,173.58a1.26,1.26,0,0,1-.23.76,1.66,1.66,0,0,1-.85.56,8.12,8.12,0,0,1-1.63.33,20.46,20.46,0,0,1-2.59.13,19.82,19.82,0,0,1-2.54-.13,7.85,7.85,0,0,1-1.62-.33,1.86,1.86,0,0,1-.85-.56,1.22,1.22,0,0,1-.25-.76V128.9h-.08L398,173.54a2,2,0,0,1-.55.91,2.64,2.64,0,0,1-1,.57,6.78,6.78,0,0,1-1.67.28q-1,.06-2.46.06c-1,0-1.78,0-2.46-.1a8.37,8.37,0,0,1-1.68-.34,3.19,3.19,0,0,1-1-.58,1.67,1.67,0,0,1-.51-.8L371.19,128.9h-.08v44.68a1.34,1.34,0,0,1-.23.76,1.73,1.73,0,0,1-.87.56,8.72,8.72,0,0,1-1.64.33,19.84,19.84,0,0,1-2.56.13,20.1,20.1,0,0,1-2.55-.13,8.12,8.12,0,0,1-1.63-.33,1.66,1.66,0,0,1-.85-.56,1.27,1.27,0,0,1-.24-.76V124.66a4.51,4.51,0,0,1,1.15-3.31,4.14,4.14,0,0,1,3.06-1.14H372a14.81,14.81,0,0,1,3.35.32,6.35,6.35,0,0,1,2.42,1.06,5.88,5.88,0,0,1,1.7,2,14,14,0,0,1,1.19,3l11.88,32.71h.17l12.3-32.63a17.56,17.56,0,0,1,1.21-3,7,7,0,0,1,1.53-2,5,5,0,0,1,2-1.08,10.47,10.47,0,0,1,2.76-.32h7.51a6,6,0,0,1,2,.29,3.33,3.33,0,0,1,1.36.87,3.88,3.88,0,0,1,.81,1.4,6.16,6.16,0,0,1,.27,1.89Z"/><path class="cls-5" d="M476.25,171a14,14,0,0,1,.63,2.42,1.43,1.43,0,0,1-.33,1.33,2.85,2.85,0,0,1-1.66.56c-.79.07-1.88.1-3.27.1s-2.56,0-3.37-.06a7.94,7.94,0,0,1-1.84-.26,1.62,1.62,0,0,1-.9-.53,2.73,2.73,0,0,1-.42-.89l-3.69-11H440.78l-3.48,10.74a3.48,3.48,0,0,1-.44,1,1.9,1.9,0,0,1-.9.64,6.86,6.86,0,0,1-1.74.32c-.75.05-1.73.08-2.94.08a26.9,26.9,0,0,1-3.06-.13,2.32,2.32,0,0,1-1.53-.61,1.66,1.66,0,0,1-.29-1.38,13.55,13.55,0,0,1,.63-2.38L444,122.16a4.25,4.25,0,0,1,.6-1.17,2.06,2.06,0,0,1,1.08-.68,8.71,8.71,0,0,1,2.06-.29c.87,0,2-.07,3.47-.07,1.67,0,3,0,4,.07a10.85,10.85,0,0,1,2.31.29,2.21,2.21,0,0,1,1.19.7,4.13,4.13,0,0,1,.62,1.28Zm-25.2-40.26H451L443.24,154h15.57Z"/><path class="cls-5" d="M525.72,171.2a4.16,4.16,0,0,1-.34,1.74,3.63,3.63,0,0,1-.91,1.28,3.59,3.59,0,0,1-1.36.74,5.71,5.71,0,0,1-1.59.23h-4.75a10.17,10.17,0,0,1-2.57-.29,5.08,5.08,0,0,1-2-1.09,9.22,9.22,0,0,1-1.76-2.12,38.61,38.61,0,0,1-1.91-3.46l-13.66-25.66c-.8-1.53-1.6-3.18-2.42-4.95s-1.56-3.48-2.21-5.15h-.08c.11,2,.2,4.07.25,6.09s.09,4.1.09,6.25v28.73a1.27,1.27,0,0,1-.24.76,1.64,1.64,0,0,1-.8.57,6,6,0,0,1-1.55.36,19,19,0,0,1-2.5.13,18.59,18.59,0,0,1-2.46-.13,5.55,5.55,0,0,1-1.53-.36,1.59,1.59,0,0,1-.77-.57,1.4,1.4,0,0,1-.21-.76V124.2a3.74,3.74,0,0,1,1.17-3,4.27,4.27,0,0,1,2.86-1h6a11.66,11.66,0,0,1,2.72.27,5.74,5.74,0,0,1,2,.91,7.25,7.25,0,0,1,1.64,1.77,23,23,0,0,1,1.57,2.77L509.05,146c.62,1.22,1.24,2.41,1.84,3.59s1.2,2.35,1.76,3.52,1.12,2.33,1.66,3.46,1.06,2.26,1.57,3.39h0c-.08-2-.15-4-.19-6.19s-.06-4.2-.06-6.15V121.86a1.22,1.22,0,0,1,.25-.76,2,2,0,0,1,.85-.6,5.61,5.61,0,0,1,1.57-.36,24.34,24.34,0,0,1,2.5-.1,23.44,23.44,0,0,1,2.42.1,4.84,4.84,0,0,1,1.51.36,1.71,1.71,0,0,1,.74.6,1.4,1.4,0,0,1,.21.76Z"/><path class="cls-5" d="M579.48,171.2a4.16,4.16,0,0,1-.34,1.74,3.76,3.76,0,0,1-.91,1.28,3.59,3.59,0,0,1-1.36.74,5.71,5.71,0,0,1-1.59.23h-4.75a10.17,10.17,0,0,1-2.57-.29,5.08,5.08,0,0,1-2-1.09,9.22,9.22,0,0,1-1.76-2.12,36.24,36.24,0,0,1-1.91-3.46l-13.66-25.66c-.8-1.53-1.6-3.18-2.42-4.95s-1.56-3.48-2.21-5.15h-.08c.11,2,.19,4.07.25,6.09s.09,4.1.09,6.25v28.73a1.27,1.27,0,0,1-.24.76,1.64,1.64,0,0,1-.8.57,6.12,6.12,0,0,1-1.55.36,19.11,19.11,0,0,1-2.51.13,18.59,18.59,0,0,1-2.46-.13,5.56,5.56,0,0,1-1.52-.36,1.54,1.54,0,0,1-.77-.57,1.4,1.4,0,0,1-.21-.76V124.2a3.74,3.74,0,0,1,1.17-3,4.27,4.27,0,0,1,2.86-1h6a11.66,11.66,0,0,1,2.72.27,5.83,5.83,0,0,1,2,.91,7,7,0,0,1,1.63,1.77,22.9,22.9,0,0,1,1.58,2.77L562.81,146c.62,1.22,1.23,2.41,1.84,3.59s1.2,2.35,1.76,3.52,1.12,2.33,1.66,3.46,1.06,2.26,1.57,3.39h0q-.13-3-.19-6.19c0-2.15-.07-4.2-.07-6.15V121.86a1.23,1.23,0,0,1,.26-.76,2,2,0,0,1,.85-.6,5.52,5.52,0,0,1,1.57-.36,24.34,24.34,0,0,1,2.5-.1,23.44,23.44,0,0,1,2.42.1,4.84,4.84,0,0,1,1.51.36,1.71,1.71,0,0,1,.74.6,1.4,1.4,0,0,1,.21.76Z"/><path class="cls-6" d="M122.82,78l-12.5,8.84L123.39,89l4.24,13.84,9.8-12.11,7.77-.36a120.22,120.22,0,0,0-22.38-13.46Z"/><path class="cls-7" d="M62.83,71.12l-5.95,10,9-6.35,5.76,2.7,2.69-9,2-1.61A99.14,99.14,0,0,0,60.7,69.13Z"/><path class="cls-8" d="M144.36,80.74l4.8-11.93-15,4.43-11.34-5.39v9.06A120.22,120.22,0,0,1,145.2,90.37l8.58-.4Z"/><path class="cls-9" d="M144.36,80.74l4.8-11.93-15,4.43-11.34-5.39v9.06A120.22,120.22,0,0,1,145.2,90.37l8.58-.4Z"/><path class="cls-10" d="M76.29,61.89l-.18-5-8.27,8.27L60,68.43l.75.7a99.14,99.14,0,0,1,15.66-2.31l7.24-5.89Z"/><path class="cls-11" d="M76.29,61.89l-.18-5-8.27,8.27L60,68.43l.75.7a99.14,99.14,0,0,1,15.66-2.31l7.24-5.89Z"/><polygon class="cls-1" points="114.13 52.88 115.11 54.45 123.97 55.81 123.97 54.4 114.13 52.88"/><polygon class="cls-12" points="114.13 52.88 115.11 54.45 123.97 55.81 123.97 54.4 114.13 52.88"/><polygon class="cls-1" points="124.05 64.14 124.05 64.14 125.11 65.8 135.3 57.53 148.76 58.48 147.45 56.88 134.16 55.93 124.05 64.14"/><polygon class="cls-13" points="124.05 64.14 124.05 64.14 125.11 65.8 135.3 57.53 148.76 58.48 147.45 56.88 134.16 55.93 124.05 64.14"/><polygon class="cls-1" points="148.93 44.27 148.89 44.28 142.43 50.55 143.66 52.05 150.11 45.8 148.93 44.27"/><polygon class="cls-14" points="148.93 44.27 148.89 44.28 142.43 50.55 143.66 52.05 150.11 45.8 148.93 44.27"/><polygon class="cls-15" points="123.97 55.81 123.97 64.2 124.05 64.14 125.11 55.99 123.97 55.81"/><polygon class="cls-16" points="126.85 49.45 130.49 43.11 137.99 46.95 148.89 44.28 148.97 44.21 136.85 45.36 129.35 41.52 125.71 47.86 113.97 52.85 114.13 52.88 114.09 52.81 126.85 49.45"/><polygon class="cls-17" points="147.45 56.88 147.63 56.89 143.66 52.05 143.57 52.14 147.45 56.88"/><polygon class="cls-18" points="147.45 56.88 147.63 56.89 143.66 52.05 143.57 52.14 147.45 56.88"/><polygon class="cls-1" points="148.89 44.28 137.99 46.95 130.49 43.11 126.85 49.45 114.09 52.81 114.13 52.88 123.97 54.4 123.97 55.81 125.11 55.99 124.05 64.14 134.16 55.93 147.45 56.88 143.57 52.14 143.66 52.05 142.43 50.55 148.89 44.28"/><polygon class="cls-19" points="148.89 44.28 137.99 46.95 130.49 43.11 126.85 49.45 114.09 52.81 114.13 52.88 123.97 54.4 123.97 55.81 125.11 55.99 124.05 64.14 134.16 55.93 147.45 56.88 143.57 52.14 143.66 52.05 142.43 50.55 148.89 44.28"/><polygon class="cls-20" points="148.97 44.21 136.85 45.36 129.35 41.52 125.71 47.86 113.97 52.85 114.13 52.88 123.97 54.4 123.97 55.81 123.97 64.2 124.05 64.14 134.16 55.93 147.45 56.88 143.57 52.14 143.66 52.05 142.43 50.55 148.89 44.28 148.97 44.21"/><path class="cls-1" d="M117.51,40.86l-.3.08c-1.85.91-8.23,4.42-8.23,4.42V51.9l-9.23-.39L89,57.82,89.1,59l10.76-6.34,10.07.39V46.5s6.85-4.23,7.81-4.62Z"/><path class="cls-21" d="M117.51,40.86l-.3.08c-1.85.91-8.23,4.42-8.23,4.42V51.9l-9.23-.39L89,57.82,89.1,59l10.76-6.34,10.07.39V46.5s6.85-4.23,7.81-4.62Z"/><polygon class="cls-1" points="88.3 49.04 88.33 50.16 92.5 51.32 93.02 50.35 88.3 49.04"/><polygon class="cls-22" points="88.3 49.04 88.33 50.16 92.5 51.32 93.02 50.35 88.3 49.04"/><polygon class="cls-23" points="93.13 51.49 92.5 51.32 88.98 57.85 89.05 57.82 89.04 57.77 93.13 51.49"/><path class="cls-24" d="M97.94,46.31l6.34-5.39,2.89,2.69,10-2.67.42-.2-10.57,1.73-2.89-2.69-6.34,5.39L88.21,49l.09,0v0Z"/><path class="cls-1" d="M109,51.9V45.36s6.38-3.51,8.23-4.42l-10,2.67-2.89-2.69-6.34,5.39L88.3,49v0L93,50.35l-.52,1,.63.17L89,57.77v0l10.71-6.31Z"/><path class="cls-25" d="M109,51.9V45.36s6.38-3.51,8.23-4.42l-10,2.67-2.89-2.69-6.34,5.39L88.3,49v0L93,50.35l-.52,1,.63.17L89,57.77v0l10.71-6.31Z"/><path class="cls-26" d="M107.06,42.47l-2.89-2.69-6.34,5.39L88.21,49l.09,0L93,50.35l-.52,1L89,57.85l.05,0,10.71-6.31,9.23.39V45.36s6.38-3.51,8.23-4.42l.42-.2Z"/><path class="cls-5" d="M142.17,212.8a12.4,12.4,0,0,1-.72,4.37,8.82,8.82,0,0,1-2,3.24,8.69,8.69,0,0,1-3.24,2,12.94,12.94,0,0,1-4.33.68,12.08,12.08,0,0,1-4-.64,8.62,8.62,0,0,1-3.14-1.9,8.32,8.32,0,0,1-2-3.14,12.46,12.46,0,0,1-.7-4.36V196.4a.46.46,0,0,1,.37-.48,3.58,3.58,0,0,1,.54-.13,6.58,6.58,0,0,1,.87,0,6.7,6.7,0,0,1,.85,0,3,3,0,0,1,.55.13.5.5,0,0,1,.28.19.49.49,0,0,1,.08.29v16.23a10.59,10.59,0,0,0,.46,3.26,6.2,6.2,0,0,0,1.32,2.31,5.45,5.45,0,0,0,2.07,1.39,7.38,7.38,0,0,0,2.73.47,7.7,7.7,0,0,0,2.77-.46,5.31,5.31,0,0,0,2.06-1.36,6.06,6.06,0,0,0,1.28-2.27,10,10,0,0,0,.45-3.15V196.4a.46.46,0,0,1,.37-.48,3.75,3.75,0,0,1,.55-.13,6.81,6.81,0,0,1,.87,0,6.53,6.53,0,0,1,.84,0,3.58,3.58,0,0,1,.54.13.61.61,0,0,1,.29.19.5.5,0,0,1,.09.29Zm-8-24.34a2.16,2.16,0,0,1,.45-.42,1.78,1.78,0,0,1,.48-.23,3.5,3.5,0,0,1,.65-.11c.25,0,.54,0,.89,0a4.18,4.18,0,0,1,1,.09,1,1,0,0,1,.49.24.33.33,0,0,1,.1.33,1.15,1.15,0,0,1-.24.4l-4.71,4.4a3.26,3.26,0,0,1-.39.32,1.47,1.47,0,0,1-.4.18,2.47,2.47,0,0,1-.53.11c-.2,0-.45,0-.74,0a4.67,4.67,0,0,1-.74-.05.71.71,0,0,1-.38-.17.28.28,0,0,1-.06-.28,1,1,0,0,1,.23-.39Z"/><path class="cls-5" d="M163.41,215.18a7.9,7.9,0,0,1-.69,3.37,7.4,7.4,0,0,1-1.93,2.5,8.27,8.27,0,0,1-2.91,1.54,11.91,11.91,0,0,1-3.6.52,12.29,12.29,0,0,1-2.5-.23,13.39,13.39,0,0,1-2.05-.56,10.61,10.61,0,0,1-1.52-.68,4.44,4.44,0,0,1-.85-.6,1.58,1.58,0,0,1-.35-.64,3.51,3.51,0,0,1-.11-1,5.35,5.35,0,0,1,0-.76,1.85,1.85,0,0,1,.12-.49.63.63,0,0,1,.21-.26.54.54,0,0,1,.29-.07,1.74,1.74,0,0,1,.82.35,11.76,11.76,0,0,0,1.36.77,12.67,12.67,0,0,0,2,.78,9.22,9.22,0,0,0,2.71.36,6.9,6.9,0,0,0,2.13-.31,5.16,5.16,0,0,0,1.66-.88,3.75,3.75,0,0,0,1.06-1.4,4.59,4.59,0,0,0,.38-1.89,3.51,3.51,0,0,0-.52-2,5.26,5.26,0,0,0-1.37-1.42,11.91,11.91,0,0,0-1.94-1.12l-2.23-1a23.49,23.49,0,0,1-2.22-1.17,9.59,9.59,0,0,1-1.93-1.52,6.92,6.92,0,0,1-1.38-2,6.86,6.86,0,0,1-.53-2.82,7,7,0,0,1,.61-3,6.21,6.21,0,0,1,1.7-2.21,7.49,7.49,0,0,1,2.6-1.36,10.89,10.89,0,0,1,3.24-.47,10,10,0,0,1,1.8.16,12.08,12.08,0,0,1,1.7.41,9.51,9.51,0,0,1,1.42.58,3.78,3.78,0,0,1,.82.52,1.73,1.73,0,0,1,.26.31,1.36,1.36,0,0,1,.11.29c0,.12,0,.26.06.43s0,.38,0,.64,0,.47,0,.67a1.92,1.92,0,0,1-.1.48.62.62,0,0,1-.17.29.37.37,0,0,1-.26.1,1.77,1.77,0,0,1-.72-.29c-.32-.2-.72-.41-1.19-.66a10.76,10.76,0,0,0-1.67-.66,7.3,7.3,0,0,0-2.17-.3,5.71,5.71,0,0,0-2,.3,4.06,4.06,0,0,0-1.37.8,3.12,3.12,0,0,0-.81,1.18,3.93,3.93,0,0,0-.27,1.45,3.46,3.46,0,0,0,.52,1.93,5.52,5.52,0,0,0,1.38,1.44,13,13,0,0,0,2,1.14l2.24,1c.76.36,1.51.74,2.24,1.17a9.13,9.13,0,0,1,2,1.49,6.72,6.72,0,0,1,1.39,2A6.62,6.62,0,0,1,163.41,215.18Z"/><path class="cls-5" d="M184.76,203.73a9.54,9.54,0,0,1-.66,3.63,7.79,7.79,0,0,1-1.9,2.76,8.54,8.54,0,0,1-3,1.77,13.31,13.31,0,0,1-4.29.62h-3v9.67a.48.48,0,0,1-.09.29.65.65,0,0,1-.29.2,3.19,3.19,0,0,1-.54.12,5.3,5.3,0,0,1-.86.05,5.23,5.23,0,0,1-.86-.05,3.61,3.61,0,0,1-.55-.12.55.55,0,0,1-.29-.2.48.48,0,0,1-.09-.29V197.4a1.43,1.43,0,0,1,.44-1.18,1.5,1.5,0,0,1,1-.36h5.74c.58,0,1.14,0,1.67.08a15.32,15.32,0,0,1,1.89.31,7.88,7.88,0,0,1,2.22.89,6.86,6.86,0,0,1,1.92,1.61,7,7,0,0,1,1.22,2.21A8.7,8.7,0,0,1,184.76,203.73ZM181,204a5.55,5.55,0,0,0-.62-2.74,4.23,4.23,0,0,0-1.51-1.64A5,5,0,0,0,177,199a12.2,12.2,0,0,0-1.88-.15h-3.3v10.77h3.22a7.69,7.69,0,0,0,2.69-.41,5,5,0,0,0,1.79-1.16,4.7,4.7,0,0,0,1.1-1.76A6.44,6.44,0,0,0,181,204Z"/><path class="cls-5" d="M204.06,221.24a4.23,4.23,0,0,1-.05.66,1.3,1.3,0,0,1-.14.47.68.68,0,0,1-.24.26.53.53,0,0,1-.3.09H190.44a1.48,1.48,0,0,1-.9-.32,1.37,1.37,0,0,1-.43-1.14V197.32a1.34,1.34,0,0,1,.43-1.13,1.43,1.43,0,0,1,.9-.33h12.74a.56.56,0,0,1,.52.36,2.1,2.1,0,0,1,.14.46,4.49,4.49,0,0,1,0,.7,4,4,0,0,1,0,.65,1.94,1.94,0,0,1-.14.46.57.57,0,0,1-.22.26.58.58,0,0,1-.3.08h-10.5v8.43h9a.53.53,0,0,1,.3.09.73.73,0,0,1,.23.26,1.2,1.2,0,0,1,.13.46,4.4,4.4,0,0,1,.05.68,4,4,0,0,1-.05.65,1.15,1.15,0,0,1-.13.43.59.59,0,0,1-.23.24.6.6,0,0,1-.3.07h-9v9.61h10.65a.61.61,0,0,1,.3.08.87.87,0,0,1,.24.26,1.14,1.14,0,0,1,.14.46A4.44,4.44,0,0,1,204.06,221.24Zm-7.69-27.47-.73,0a2.45,2.45,0,0,1-.51-.09,1.06,1.06,0,0,1-.37-.18,4.37,4.37,0,0,1-.34-.31L190,188.46a.81.81,0,0,1-.23-.37.22.22,0,0,1,.08-.25,1,1,0,0,1,.42-.13,5,5,0,0,1,.74,0c.42,0,.75,0,1,0a5.21,5.21,0,0,1,.6.08.88.88,0,0,1,.35.16l.25.21,3.2,3.56,3.32-3.48A1.22,1.22,0,0,1,200,188a1.38,1.38,0,0,1,.41-.18,3.13,3.13,0,0,1,.62-.08c.25,0,.56,0,.93,0a5.56,5.56,0,0,1,.8.05.69.69,0,0,1,.4.15.21.21,0,0,1,.06.24,1.17,1.17,0,0,1-.22.35l-4.63,4.71a1.93,1.93,0,0,1-.35.3,1.77,1.77,0,0,1-.42.18,2.5,2.5,0,0,1-.53.1Z"/><path class="cls-5" d="M227,218.92a5.15,5.15,0,0,1,0,.58,2.54,2.54,0,0,1-.07.44,1.22,1.22,0,0,1-.14.33,1.55,1.55,0,0,1-.29.35,4.9,4.9,0,0,1-.87.63,9,9,0,0,1-1.65.83,13.78,13.78,0,0,1-2.26.69,12.8,12.8,0,0,1-2.79.28,12.25,12.25,0,0,1-4.72-.87,9.44,9.44,0,0,1-3.59-2.58,11.61,11.61,0,0,1-2.28-4.2,21.07,21.07,0,0,1,.06-11.71,12.85,12.85,0,0,1,2.42-4.43,10.15,10.15,0,0,1,3.72-2.77,11.76,11.76,0,0,1,4.8-1,12.13,12.13,0,0,1,2.27.22,15.31,15.31,0,0,1,2,.55,9.13,9.13,0,0,1,1.66.77,6.41,6.41,0,0,1,1,.71,3,3,0,0,1,.36.43,1.51,1.51,0,0,1,.14.34,4.13,4.13,0,0,1,.08.47,5.85,5.85,0,0,1,0,.64,4.87,4.87,0,0,1,0,.71,2,2,0,0,1-.13.49.71.71,0,0,1-.2.29.43.43,0,0,1-.28.09,1.59,1.59,0,0,1-.81-.41c-.35-.26-.8-.56-1.35-.89a11.13,11.13,0,0,0-2-.89,8.78,8.78,0,0,0-2.83-.4,7.32,7.32,0,0,0-3.26.71,7,7,0,0,0-2.52,2.11,10.36,10.36,0,0,0-1.61,3.39,16.38,16.38,0,0,0-.58,4.58,16.61,16.61,0,0,0,.56,4.51,9.2,9.2,0,0,0,1.58,3.28,6.65,6.65,0,0,0,2.54,2,8.19,8.19,0,0,0,3.4.68,9,9,0,0,0,2.8-.4,11.36,11.36,0,0,0,2-.88c.56-.33,1-.62,1.39-.88a1.6,1.6,0,0,1,.85-.4.41.41,0,0,1,.25.07.42.42,0,0,1,.17.23,2.27,2.27,0,0,1,.09.49C227,218.34,227,218.6,227,218.92Z"/><path class="cls-5" d="M250.86,222.18a.55.55,0,0,1-.08.29.6.6,0,0,1-.29.2,3.61,3.61,0,0,1-.55.12,5.12,5.12,0,0,1-.84.05,5.42,5.42,0,0,1-.88-.05,3.28,3.28,0,0,1-.53-.12.63.63,0,0,1-.3-.2.55.55,0,0,1-.08-.29V210.27H235.09v11.91a.55.55,0,0,1-.08.29.65.65,0,0,1-.29.2,3.9,3.9,0,0,1-.55.12,7.42,7.42,0,0,1-1.72,0,3.78,3.78,0,0,1-.56-.12.6.6,0,0,1-.29-.2.55.55,0,0,1-.08-.29V196.4a.57.57,0,0,1,.08-.29.53.53,0,0,1,.29-.19,3.62,3.62,0,0,1,.56-.13,7.42,7.42,0,0,1,1.72,0,3.75,3.75,0,0,1,.55.13.46.46,0,0,1,.37.48v10.75h12.22V196.4a.57.57,0,0,1,.08-.29.56.56,0,0,1,.3-.19,3.15,3.15,0,0,1,.53-.13,6.86,6.86,0,0,1,.88,0,6.53,6.53,0,0,1,.84,0,3.46,3.46,0,0,1,.55.13.53.53,0,0,1,.29.19.57.57,0,0,1,.08.29Z"/><path class="cls-5" d="M278,222.09a.9.9,0,0,1-.23.38,1,1,0,0,1-.4.23,3.46,3.46,0,0,1-.67.11c-.27,0-.6,0-1,0h-.8a3.25,3.25,0,0,1-.59-.05l-.43-.09a1,1,0,0,1-.3-.14.64.64,0,0,1-.2-.2,1,1,0,0,1-.13-.28l-8.78-24.94a2.69,2.69,0,0,1-.18-.74.52.52,0,0,1,.18-.42,1.18,1.18,0,0,1,.6-.19c.28,0,.65,0,1.12,0s.7,0,.93,0a1.66,1.66,0,0,1,.53.12.67.67,0,0,1,.28.21,1.63,1.63,0,0,1,.17.35l7.7,22.59h0l7.49-22.55a1.37,1.37,0,0,1,.15-.38.52.52,0,0,1,.29-.22,1.88,1.88,0,0,1,.58-.12c.25,0,.58,0,1,0a8.75,8.75,0,0,1,1,0,.87.87,0,0,1,.51.2.48.48,0,0,1,.1.42,3.21,3.21,0,0,1-.19.74Z"/><path class="cls-5" d="M305.9,221.24a6.15,6.15,0,0,1,0,.66,1.53,1.53,0,0,1-.15.47.68.68,0,0,1-.24.26.53.53,0,0,1-.3.09H292.28a1.5,1.5,0,0,1-.9-.32,1.37,1.37,0,0,1-.42-1.14V197.32a1.33,1.33,0,0,1,.42-1.13,1.45,1.45,0,0,1,.9-.33H305a.53.53,0,0,1,.3.09.5.5,0,0,1,.21.27,2.1,2.1,0,0,1,.14.46,4.49,4.49,0,0,1,.05.7,4,4,0,0,1-.05.65,1.94,1.94,0,0,1-.14.46.55.55,0,0,1-.21.26.61.61,0,0,1-.3.08H294.52v8.43h9a.53.53,0,0,1,.3.09.73.73,0,0,1,.23.26,1.39,1.39,0,0,1,.14.46,6.39,6.39,0,0,1,0,.68,5.79,5.79,0,0,1,0,.65,1.36,1.36,0,0,1-.14.43.59.59,0,0,1-.23.24.6.6,0,0,1-.3.07h-9v9.61h10.65a.61.61,0,0,1,.3.08.87.87,0,0,1,.24.26,1.31,1.31,0,0,1,.15.46A6.43,6.43,0,0,1,305.9,221.24Z"/><path class="cls-5" d="M334.38,215.18a7.75,7.75,0,0,1-.7,3.37,7.16,7.16,0,0,1-1.93,2.5,8.32,8.32,0,0,1-2.9,1.54,12,12,0,0,1-3.6.52,12.22,12.22,0,0,1-2.5-.23,13.53,13.53,0,0,1-2.06-.56,10,10,0,0,1-1.51-.68,4.44,4.44,0,0,1-.85-.6,1.6,1.6,0,0,1-.36-.64,3.9,3.9,0,0,1-.11-1,5.35,5.35,0,0,1,0-.76,1.82,1.82,0,0,1,.13-.49.55.55,0,0,1,.2-.26.57.57,0,0,1,.29-.07,1.7,1.7,0,0,1,.82.35,13.75,13.75,0,0,0,1.36.77,12.82,12.82,0,0,0,2,.78,9.19,9.19,0,0,0,2.7.36,6.81,6.81,0,0,0,2.13-.31,5.06,5.06,0,0,0,1.66-.88,3.88,3.88,0,0,0,1.07-1.4,4.59,4.59,0,0,0,.37-1.89,3.51,3.51,0,0,0-.52-2,5.12,5.12,0,0,0-1.37-1.42,11.5,11.5,0,0,0-1.94-1.12l-2.23-1a23.49,23.49,0,0,1-2.22-1.17,9.59,9.59,0,0,1-1.93-1.52,7.33,7.33,0,0,1-1.38-2,6.86,6.86,0,0,1-.53-2.82,7,7,0,0,1,.62-3,6,6,0,0,1,1.7-2.21,7.44,7.44,0,0,1,2.59-1.36,11,11,0,0,1,3.25-.47,9.93,9.93,0,0,1,1.79.16,12.22,12.22,0,0,1,1.71.41,10,10,0,0,1,1.42.58,4.06,4.06,0,0,1,.82.52,2.33,2.33,0,0,1,.26.31,1.39,1.39,0,0,1,.1.29,2.34,2.34,0,0,1,.06.43,5.84,5.84,0,0,1,0,.64c0,.25,0,.47,0,.67a2.58,2.58,0,0,1-.09.48.56.56,0,0,1-.18.29.35.35,0,0,1-.26.1,1.69,1.69,0,0,1-.71-.29c-.33-.2-.73-.41-1.2-.66a10.38,10.38,0,0,0-1.67-.66,7.25,7.25,0,0,0-2.17-.3,5.79,5.79,0,0,0-1.95.3,4.06,4.06,0,0,0-1.37.8,3.12,3.12,0,0,0-.81,1.18,4.14,4.14,0,0,0-.26,1.45,3.54,3.54,0,0,0,.51,1.93,5.52,5.52,0,0,0,1.38,1.44,13.47,13.47,0,0,0,2,1.14l2.25,1c.76.36,1.5.74,2.24,1.17a9.65,9.65,0,0,1,2,1.49,6.9,6.9,0,0,1,1.39,2A6.78,6.78,0,0,1,334.38,215.18Z"/><path class="cls-5" d="M355.76,197.4a4.52,4.52,0,0,1,0,.68,1.31,1.31,0,0,1-.14.47.59.59,0,0,1-.23.26.52.52,0,0,1-.3.08H347.5v23.29a.55.55,0,0,1-.08.29.65.65,0,0,1-.29.2,3.9,3.9,0,0,1-.55.12,5.3,5.3,0,0,1-.86.05,5.38,5.38,0,0,1-.86-.05,3.78,3.78,0,0,1-.56-.12.65.65,0,0,1-.29-.2.55.55,0,0,1-.08-.29V198.89h-7.55a.54.54,0,0,1-.52-.34,1.89,1.89,0,0,1-.14-.47,4.4,4.4,0,0,1-.05-.68,4.65,4.65,0,0,1,.05-.69,2,2,0,0,1,.14-.49.51.51,0,0,1,.22-.27.53.53,0,0,1,.3-.09h18.67a.53.53,0,0,1,.3.09.57.57,0,0,1,.23.27,1.37,1.37,0,0,1,.14.49A4.75,4.75,0,0,1,355.76,197.4Z"/><path class="cls-5" d="M376.18,221.45a2.77,2.77,0,0,1,.18.74.52.52,0,0,1-.16.42,1,1,0,0,1-.55.19,9.54,9.54,0,0,1-1,0q-.64,0-1,0a2.37,2.37,0,0,1-.59-.1.71.71,0,0,1-.29-.2,1.49,1.49,0,0,1-.17-.31l-2.31-6.54H359.08l-2.2,6.46a1.09,1.09,0,0,1-.17.32.91.91,0,0,1-.3.23,2,2,0,0,1-.56.13,8.12,8.12,0,0,1-.94,0,6.9,6.9,0,0,1-1-.05,1,1,0,0,1-.54-.2.51.51,0,0,1-.14-.42,2.36,2.36,0,0,1,.17-.74l9-24.94a1.15,1.15,0,0,1,.22-.38.91.91,0,0,1,.39-.22,2.78,2.78,0,0,1,.67-.12q.41,0,1,0c.45,0,.81,0,1.1,0a3,3,0,0,1,.71.12.85.85,0,0,1,.41.23,1.09,1.09,0,0,1,.23.39Zm-11.56-22h0L360,212.82h9.34Zm2.49-11a2.16,2.16,0,0,1,.45-.42,1.78,1.78,0,0,1,.48-.23,3.5,3.5,0,0,1,.65-.11c.25,0,.54,0,.89,0a4.18,4.18,0,0,1,1,.09,1,1,0,0,1,.49.24.33.33,0,0,1,.1.33,1.15,1.15,0,0,1-.24.4l-4.71,4.4a3.26,3.26,0,0,1-.39.32,1.47,1.47,0,0,1-.4.18,2.47,2.47,0,0,1-.53.11c-.2,0-.45,0-.74,0a4.57,4.57,0,0,1-.74-.05.71.71,0,0,1-.38-.17.28.28,0,0,1-.06-.28,1,1,0,0,1,.23-.39Z"/><path class="cls-5" d="M388.2,216a14,14,0,0,1-.29,2.93,5.84,5.84,0,0,1-1,2.26,4.63,4.63,0,0,1-1.86,1.44,7,7,0,0,1-2.85.51,7.18,7.18,0,0,1-2.2-.34,6.83,6.83,0,0,1-.83-.33,2.13,2.13,0,0,1-.47-.3,3,3,0,0,1-.18-.25,2.08,2.08,0,0,1-.13-.3,2.39,2.39,0,0,1-.07-.44c0-.17,0-.38,0-.63s0-.56,0-.76a1.4,1.4,0,0,1,.12-.48.63.63,0,0,1,.19-.25.51.51,0,0,1,.28-.07.88.88,0,0,1,.43.16l.62.34a5.63,5.63,0,0,0,.84.34,3.73,3.73,0,0,0,1.12.16,3.53,3.53,0,0,0,1.2-.18,1.64,1.64,0,0,0,.83-.65,3.37,3.37,0,0,0,.5-1.32,11.7,11.7,0,0,0,.17-2.19V196.38a.56.56,0,0,1,.08-.27.6.6,0,0,1,.29-.2,2.12,2.12,0,0,1,.55-.13,7,7,0,0,1,.86,0,6.81,6.81,0,0,1,.85,0,1.93,1.93,0,0,1,.55.13.6.6,0,0,1,.29.2.43.43,0,0,1,.1.27Z"/><path class="cls-5" d="M398.59,222.18a.48.48,0,0,1-.09.29.55.55,0,0,1-.29.2,3.35,3.35,0,0,1-.55.12,5.16,5.16,0,0,1-.86.05,5.32,5.32,0,0,1-.85-.05,3.78,3.78,0,0,1-.56-.12.6.6,0,0,1-.29-.2.55.55,0,0,1-.08-.29V196.4a.5.5,0,0,1,.09-.29.59.59,0,0,1,.31-.19,3.93,3.93,0,0,1,.56-.13,6.32,6.32,0,0,1,.82,0,6.52,6.52,0,0,1,.86,0,3.21,3.21,0,0,1,.55.13.48.48,0,0,1,.38.48Z"/></svg>