<?xml version="1.0" encoding="UTF-8"?>
<svg width="269px" height="54px" viewBox="0 0 269 54" version="1.1" xmlns="http://www.w3.org/2000/svg" xmlns:xlink="http://www.w3.org/1999/xlink">
    <!-- Generator: Sketch 52.6 (67491) - http://www.bohemiancoding.com/sketch -->
    <title>Artboard</title>
    <desc>Created with Sketch.</desc>
    <g id="Artboard" stroke="none" stroke-width="1" fill="none" fill-rule="evenodd">
        <g id="Logo-Mobile-neu">
            <g id="Ebene_1" transform="translate(0.000000, 0.002000)">
                <path d="M21,1 C20.3,1.8 19.9,2.9 20,4 C20,8.4 24,15 24,20 C24,25 18,27 16,28 C14,29 13,32 13,35 C13,36.1 14,37 15.4,37.6 C18.2,38.7 21.1,39.5 24,40 L24,41 L0,41 L0,40 C3,39.5 5.9,38.7 8.7,37.6 C10,37 11,36.1 11,35 C11,32 10,29 8,28 C6,27 0,25 0,20 C0,15 4,8.4 4,4 C4.1,2.9 3.7,1.8 3,1 L21,1 Z" id="Pfad_175" fill="#EED1AC"></path>
                <g id="Gruppe_51" transform="translate(36.000000, 0.000000)" fill="#FFAA01">
                    <polygon id="Pfad_176" points="48.2 1 41.7 1 35.5 30.8 27.4 1 21.5 1 14.4 30.7 8.1 1 0.5 1 10.1 41 17.6 41 23.9 14.3 31.9 41 39 41"></polygon>
                    <path d="M67.1,12.3 C64,12.5 61.2,14.2 59.6,16.8 L59.6,1 L52,1 L52,41 L59.5,41 L59.5,22.5 C59.5,20.5 62.1,17.8 64.3,17.8 C66.3,17.8 67.2,18.4 67.9,19.1 C68.6,19.8 68.8,21.4 68.8,23 L68.8,41 L76.3,41 L76.3,23 C76.3,15.9 73.2,12.3 67.1,12.3 Z" id="Pfad_177"></path>
                    <polygon id="Rechteck_172" points="83.5 12.9 91.1 12.9 91.1 41 83.5 41"></polygon>
                    <path d="M114.9,25.3 C113.4,24.8 111.8,24.3 110.2,24 C108.8,23.8 107.4,23.3 106.2,22.7 C105.4,22.2 104.8,21.4 104.7,20.4 C104.7,19.5 105.1,18.7 105.7,18.2 C106.6,17.6 107.6,17.3 108.6,17.3 C109.9,17.3 111.2,17.7 112.1,18.6 C112.8,19.3 113.2,20.3 113.1,21.3 L120.6,21.3 C120.7,18.7 119.5,16.3 117.4,14.7 C114.9,12.9 111.9,12 108.8,12.2 C105.9,12.1 103,13 100.7,14.7 C98.7,16.2 97.6,18.5 97.6,21 C97.6,25.3 101,28.1 107.7,29.5 C109.2,29.8 110.7,30.2 112.1,30.9 C112.9,31.3 113.5,32.1 113.5,33.1 C113.5,34 113.1,34.8 112.4,35.2 C111.4,35.8 110.3,36.1 109.1,36 C107.8,36.1 106.5,35.7 105.4,34.9 C104.5,34.2 103.9,33 103.9,31.8 L96.8,31.8 C96.8,33.5 97.4,35.2 98.4,36.6 C99.5,38.1 101,39.3 102.7,40.1 C104.7,41 106.8,41.4 109,41.4 C112,41.5 115,40.7 117.5,39 C119.6,37.6 120.8,35.3 120.8,32.8 C120.9,29.3 118.9,26.8 114.9,25.3 Z" id="Pfad_178"></path>
                    <polygon id="Pfad_179" points="150 12.8 143 12.8 135.8 21.3 134.3 23.2 134.3 1 126.8 1 126.8 41 134.3 41 134.3 30.7 135.3 29.6 143.1 41 152.1 41 140.2 24.3"></polygon>
                    <path d="M171.2,12.8 L166,31.6 L160.2,12.8 L152.1,12.8 L162.3,41.5 L161.5,43.7 C161.1,44.7 160.4,45.6 159.4,46.1 C158.5,46.6 157.6,46.8 156.6,46.7 L155.1,46.8 L155.1,52.2 C156.2,52.4 157.3,52.4 158.4,52.4 C162.2,52.3 164.7,50.6 166.4,46.9 L167,45.4 L177.8,12.8 L171.2,12.8 Z" id="Pfad_180"></path>
                    <path d="M180.1,33.3 C179,33.3 177.9,33.7 177.1,34.4 C176.3,35.2 175.9,36.2 175.9,37.3 C175.9,38.4 176.3,39.4 177.1,40.2 C178.9,41.7 181.4,41.7 183.2,40.2 C184,39.5 184.4,38.4 184.4,37.3 C184.4,36.2 184,35.1 183.2,34.4 C182.3,33.6 181.2,33.2 180.1,33.3 Z" id="Pfad_181"></path>
                    <path d="M201.6,22.7 C200.3,21.3 198.6,20.6 196.7,20.6 C194.5,20.5 192.3,21.5 191,23.3 C189.5,25.5 188.8,28.1 188.9,30.8 C188.9,34.2 189.6,36.8 191,38.6 C192.3,40.4 194.4,41.4 196.7,41.3 C198.7,41.3 200.7,40.4 202,38.8 L202.3,40.9 L208.3,40.9 L208.3,12.6 L201.6,12.6 L201.6,22.7 Z M201.6,35 C201.6,36.3 200.5,37 198.6,37 C196.5,37 195.5,35.1 195.5,31.2 L195.5,30.1 C195.7,27 196.7,25 198.6,25 C200.3,25 201.5,26 201.5,27.2 L201.5,35 L201.6,35 Z" id="Pfad_182" fill-rule="nonzero"></path>
                    <path d="M222.7,20.6 C220.8,20.6 218.9,21 217.2,21.9 C215.8,22.7 214.6,24 213.9,25.5 C213.1,27.2 212.7,29 212.8,30.9 L212.8,31.4 C212.7,34.1 213.7,36.7 215.6,38.5 C219.1,41.4 223.8,42 228,40.3 C229.3,39.8 230.4,38.9 231.3,37.7 L228.7,34.6 C227.3,35.8 225.6,36.4 223.8,36.4 C222.7,36.4 221.7,36.1 220.9,35.4 C219.8,34.6 219.3,33.3 219.4,32 L232.3,32.1 L232.3,30.4 C232.5,27.7 231.6,25.1 229.9,23.1 C227.9,21.4 225.4,20.5 222.7,20.6 Z M225.7,29.5 L219.4,29.5 C219.7,27.1 220.2,25.5 222.7,25.5 C223.5,25.4 224.4,25.7 225,26.3 C225.6,26.9 225.8,27.8 225.8,28.6 L225.8,29.5 L225.7,29.5 Z" id="Pfad_183" fill-rule="nonzero"></path>
                    <path d="M87.2,9 C88.3,9 89.4,8.6 90.3,7.9 C91.1,7.2 91.5,6.1 91.5,5 C91.5,3.9 91.1,2.8 90.3,2.1 C88.5,0.6 86,0.6 84.2,2.1 C83.4,2.9 83,3.9 83,5 C83,6.1 83.4,7.1 84.2,7.9 C85,8.7 86.1,9.1 87.2,9 Z" id="Pfad_184"></path>
                </g>
            </g>
            <g id="Ebene_3" transform="translate(0.000000, 20.002000)" fill="#FFAA01">
                <path d="M24,0 C24,4.4 19.2,8 12,8 C4.8,8 0,4.4 0,0 L24,0 Z" id="Pfad_194"></path>
            </g>
        </g>
    </g>
</svg>