<svg width="122" height="24" viewBox="0 0 122 24" fill="none" xmlns="http://www.w3.org/2000/svg">
<g id="logo" clip-path="url(#clip0_2002_257)">
<path id="Vector" d="M76.9242 0.129011C76.9075 0.128465 76.8917 0.121609 76.8799 0.109833C76.8681 0.0980577 76.8612 0.0822426 76.8606 0.0655983C76.8603 0.0570889 76.8618 0.0486091 76.8648 0.0406616C76.8679 0.032714 76.8725 0.0254634 76.8785 0.0193415C76.8844 0.0132197 76.8915 0.00835064 76.8994 0.00502807C76.9072 0.00170551 76.9157 -5.05247e-06 76.9242 1.12095e-08H116.56V24C111.958 17.5125 106.062 12.0435 99.2414 7.93573C92.4208 3.828 84.8229 1.17021 76.9242 0.129011Z" fill="#FF6B00"/>
<path id="Vector_2" d="M110.026 13.9833C110.293 10.0321 110.208 7.72527 110.885 7.09772C111.512 6.51827 112.639 6.36084 114.563 6.22308C110.346 5.73766 110.449 5.8623 110.026 1.77338C109.6 5.8623 109.703 5.73766 105.486 6.22308C107.406 6.36303 108.537 6.52046 109.164 7.09772C109.841 7.72527 109.756 10.0321 110.026 13.9833Z" fill="white"/>
<path id="Vector_3" d="M26.5249 15.0174V23.5582H28.8924V16.6071C29.6903 15.9248 30.2603 16.1523 31.832 17.4467L32.7878 15.3126C32.1695 15.0266 31.4964 14.8774 30.8149 14.8753C30.4629 14.8695 30.1138 14.9396 29.7915 15.0808C29.4692 15.2219 29.1812 15.4308 28.9472 15.6931L28.8332 15.8286L28.8113 15.8046L28.8332 15.0108L26.5249 15.0174ZM36.1133 10.4955H33.7392V23.5582H36.1089L36.1133 10.4955ZM15.8272 19.2878C15.8272 21.6734 17.6029 23.6501 20.4724 23.6501C23.3419 23.6501 25.1197 21.6821 25.1197 19.2878C25.1197 16.8935 23.3419 14.9256 20.4724 14.9256C17.6029 14.9256 15.8272 16.8935 15.8272 19.2878ZM66.0841 15.0174H63.7166V23.5582H66.0841V15.0174ZM65.1963 11.1559C64.9488 11.1559 64.7068 11.2291 64.5009 11.3663C64.2951 11.5035 64.1346 11.6985 64.0399 11.9266C63.9452 12.1548 63.9204 12.4058 63.9687 12.648C64.017 12.8902 64.1362 13.1127 64.3112 13.2873C64.4863 13.4619 64.7093 13.5808 64.9521 13.629C65.1949 13.6772 65.4466 13.6524 65.6753 13.5579C65.9041 13.4634 66.0995 13.3034 66.2371 13.0981C66.3746 12.8928 66.448 12.6514 66.448 12.4044C66.4504 12.2398 66.4196 12.0764 66.3576 11.9239C66.2955 11.7713 66.2034 11.6327 66.0867 11.5163C65.97 11.3999 65.8311 11.308 65.6781 11.2461C65.5252 11.1842 65.3614 11.1535 65.1963 11.1559ZM67.5595 17.3571C67.3402 20.6063 72.1147 19.8323 71.9766 21.809C71.9087 22.6027 71.2247 22.876 70.4969 22.8541C69.3132 22.7623 68.5832 22.0823 67.9453 21.3235L67.2416 22.8913C68.1369 23.3919 69.1314 23.6905 70.1549 23.7659C72.2046 23.9015 73.9364 23.0159 74.0482 21.0393C74.2542 17.9781 69.3132 18.3585 69.403 16.7929C69.4491 16.1107 70.2229 15.7696 71.0208 15.8155C71.8188 15.8614 72.4786 16.3381 73.1845 16.9744L73.8224 15.5641C73.034 15.221 72.1954 15.0069 71.3387 14.9299C69.1312 14.7922 67.6493 15.9511 67.5595 17.3352V17.3571ZM41.7997 23.7397C42.8399 23.7391 43.8475 23.3773 44.6494 22.7164L44.6933 22.7404V23.5582H46.8854V10.4955H44.5091V15.6996C43.7219 15.1533 42.7827 14.8672 41.8238 14.8818C40.5238 14.8818 37.4285 15.6756 37.4285 19.4234C37.4285 22.2178 39.8859 23.7397 41.7997 23.7397ZM57.2476 23.5582H58.2516L63.2607 12.0874H61.9629L58.4774 20.1515L55.0402 12.0874H52.1707L57.2476 23.5582ZM99.1876 23.5582V18.8571C99.1876 15.6756 96.7521 14.8818 95.3163 14.8818C94.2926 14.8818 93.4267 15.2667 92.5608 15.8571L92.5147 15.8352V15.0174H90.3226V23.5582H92.7076V16.6748C93.4135 16.0604 94.0975 15.8111 94.6806 15.8111C95.9345 15.8111 96.7982 17.016 96.7982 18.3323V23.5582H99.1876ZM9.65636 13.1763H8.31039L5.62283 20.1056L2.75332 12.1333H0L4.25932 23.5364H5.55707L8.31039 16.4934L11.0418 23.5364H12.3417L16.5989 12.1552H15.3033L12.3198 20.1056L9.65636 13.1763ZM22.6141 19.2878C22.6141 21.2557 21.9564 22.8323 20.4724 22.8323C18.9883 22.8323 18.3328 21.2645 18.3328 19.2878C18.3328 17.3111 18.9905 15.7434 20.4724 15.7434C21.9542 15.7434 22.6141 17.3111 22.6141 19.2878ZM79.5044 19.2878C79.5044 21.6734 81.28 23.6501 84.1495 23.6501C87.0191 23.6501 88.7947 21.6821 88.7947 19.2878C88.7947 16.8935 87.0191 14.9256 84.1495 14.9256C81.28 14.9256 79.5044 16.8935 79.5044 19.2878ZM86.3 19.2878C86.3 21.2557 85.6424 22.8323 84.1583 22.8323C82.6742 22.8323 82.0188 21.2645 82.0188 19.2878C82.0188 17.3111 82.6764 15.7434 84.1583 15.7434C85.6402 15.7434 86.3 17.3111 86.3 19.2878ZM44.5179 16.7208V21.8767C43.9041 22.3993 43.3342 22.7864 42.4683 22.7864C41.4204 22.7864 40.0569 21.9008 40.0569 19.3337C40.0569 16.5611 42.2205 14.5626 44.5201 16.7098" fill="white"/>
<path id="Vector_4" d="M77.9523 15.0153H75.5848V23.5561H77.9523V15.0153Z" fill="white"/>
<path id="Vector_5" d="M76.8456 11.156C76.598 11.156 76.356 11.2292 76.1502 11.3664C75.9443 11.5036 75.7839 11.6986 75.6892 11.9268C75.5944 12.1549 75.5696 12.4059 75.6179 12.6481C75.6662 12.8903 75.7854 13.1128 75.9605 13.2874C76.1355 13.462 76.3586 13.5809 76.6014 13.6291C76.8442 13.6773 77.0959 13.6526 77.3246 13.5581C77.5533 13.4636 77.7488 13.3035 77.8863 13.0982C78.0239 12.8929 78.0973 12.6515 78.0973 12.4046C78.0997 12.2399 78.0689 12.0765 78.0068 11.924C77.9448 11.7714 77.8527 11.6329 77.7359 11.5164C77.6192 11.4 77.4803 11.3082 77.3274 11.2462C77.1744 11.1843 77.0106 11.1537 76.8456 11.156Z" fill="white"/>
</g>
<defs>
<clipPath id="clip0_2002_257">
<rect width="121.021" height="24" fill="white"/>
</clipPath>
</defs>
</svg>
