<svg width="140" height="29" viewBox="0 0 140 29" fill="none" xmlns="http://www.w3.org/2000/svg">
<g clip-path="url(#clip0_938_509)">
<path d="M88.9876 0.718133C88.9683 0.717499 88.95 0.709539 88.9363 0.695868C88.9227 0.682198 88.9147 0.663838 88.9141 0.644515C88.9138 0.634636 88.9154 0.624791 88.919 0.615565C88.9225 0.606338 88.9279 0.597921 88.9347 0.590814C88.9416 0.583707 88.9498 0.578054 88.9589 0.574197C88.968 0.570339 88.9778 0.568354 88.9876 0.568359H134.839V28.4308C129.516 20.8993 122.695 14.55 114.805 9.78122C106.914 5.01241 98.1251 1.92689 88.9876 0.718133Z" fill="#FF6B00"/>
<path d="M127.28 16.8019C127.589 12.2148 127.49 9.53671 128.274 8.80816C128.999 8.13546 130.303 7.95269 132.529 7.79277C127.65 7.22922 127.769 7.37392 127.28 2.62695C126.788 7.37392 126.907 7.22922 122.028 7.79277C124.249 7.95523 125.558 8.138 126.283 8.80816C127.067 9.53671 126.968 12.2148 127.28 16.8019Z" fill="white"/>
<path d="M30.6845 18.0025V27.9178H33.4233V19.848C34.3464 19.056 35.0057 19.32 36.824 20.8228L37.9296 18.3452C37.2143 18.0131 36.4357 17.84 35.6473 17.8375C35.2401 17.8308 34.8363 17.9122 34.4634 18.0761C34.0906 18.2399 33.7574 18.4824 33.4867 18.7869L33.3548 18.9443L33.3295 18.9164L33.3548 17.9949L30.6845 18.0025ZM41.7766 12.7529H39.0302V27.9178H41.7715L41.7766 12.7529ZM18.3093 22.9602C18.3093 25.7297 20.3634 28.0245 23.6829 28.0245C27.0024 28.0245 29.059 25.7398 29.059 22.9602C29.059 20.1805 27.0024 17.8959 23.6829 17.8959C20.3634 17.8959 18.3093 20.1805 18.3093 22.9602ZM76.4475 18.0025H73.7088V27.9178H76.4475V18.0025ZM75.4205 13.5196C75.1341 13.5196 74.8542 13.6046 74.616 13.7638C74.3779 13.9231 74.1923 14.1495 74.0827 14.4143C73.9731 14.6792 73.9445 14.9706 74.0003 15.2518C74.0562 15.533 74.1941 15.7912 74.3966 15.994C74.5991 16.1967 74.8571 16.3347 75.138 16.3907C75.4189 16.4466 75.71 16.4179 75.9746 16.3082C76.2392 16.1985 76.4654 16.0127 76.6245 15.7743C76.7836 15.5359 76.8685 15.2557 76.8685 14.969C76.8712 14.7779 76.8357 14.5882 76.7639 14.4111C76.6921 14.234 76.5855 14.0731 76.4505 13.938C76.3155 13.8029 76.1548 13.6962 75.9779 13.6243C75.8009 13.5524 75.6114 13.5168 75.4205 13.5196ZM78.1542 20.7187C77.9006 24.4909 83.4238 23.5923 83.2641 25.887C83.1855 26.8085 82.3943 27.1258 81.5523 27.1004C80.1829 26.9938 79.3385 26.2044 78.6005 25.3235L77.7865 27.1436C78.8222 27.7248 79.9726 28.0714 81.1567 28.159C83.5278 28.3164 85.5312 27.2883 85.6605 24.9935C85.8989 21.4396 80.183 21.8813 80.2869 20.0638C80.3402 19.2718 81.2354 18.8758 82.1584 18.9291C83.0815 18.9824 83.8448 19.5358 84.6614 20.2745L85.3993 18.6371C84.4873 18.2389 83.5171 17.9904 82.5261 17.901C79.9725 17.7411 78.2582 19.0864 78.1542 20.6933V20.7187ZM48.3547 28.1285C49.5581 28.1278 50.7237 27.7078 51.6514 26.9405L51.7021 26.9684V27.9178H54.2381V12.7529H51.4891V18.7945C50.5785 18.1603 49.4919 17.8282 48.3826 17.8451C46.8788 17.8451 43.2981 18.7666 43.2981 23.1176C43.2981 26.3617 46.1409 28.1285 48.3547 28.1285ZM66.2253 27.9178H67.3867L73.1813 14.6009H71.68L67.6479 23.9629L63.6716 14.6009H60.3521L66.2253 27.9178ZM114.742 27.9178V22.4601C114.742 18.7666 111.925 17.8451 110.264 17.8451C109.08 17.8451 108.078 18.2919 107.076 18.9773L107.023 18.9519V18.0025H104.487V27.9178H107.246V19.9267C108.063 19.2134 108.854 18.924 109.529 18.924C110.979 18.924 111.978 20.3227 111.978 21.8509V27.9178H114.742ZM11.1707 15.8651H9.61364L6.50461 23.9096L3.1851 14.6543H0L4.92728 27.8925H6.42853L9.61364 19.716L12.7734 27.8925H14.2772L19.2019 14.6796H17.7032L14.2518 23.9096L11.1707 15.8651ZM26.1605 22.9602C26.1605 25.2448 25.3997 27.0751 23.6829 27.0751C21.9661 27.0751 21.2078 25.255 21.2078 22.9602C21.2078 20.6654 21.9686 18.8453 23.6829 18.8453C25.3971 18.8453 26.1605 20.6654 26.1605 22.9602ZM91.9724 22.9602C91.9724 25.7297 94.0265 28.0245 97.346 28.0245C100.665 28.0245 102.72 25.7398 102.72 22.9602C102.72 20.1805 100.665 17.8959 97.346 17.8959C94.0265 17.8959 91.9724 20.1805 91.9724 22.9602ZM99.8337 22.9602C99.8337 25.2448 99.0729 27.0751 97.3561 27.0751C95.6393 27.0751 94.8811 25.255 94.8811 22.9602C94.8811 20.6654 95.6419 18.8453 97.3561 18.8453C99.0704 18.8453 99.8337 20.6654 99.8337 22.9602ZM51.4993 19.98V25.9657C50.7892 26.5724 50.1299 27.0217 49.1282 27.0217C47.916 27.0217 46.3387 25.9937 46.3387 23.0135C46.3387 19.7947 48.8416 17.4745 51.5018 19.9673" fill="white"/>
<path d="M90.177 18H87.4382V27.9153H90.177V18Z" fill="white"/>
<path d="M88.8965 13.5197C88.6101 13.5197 88.3301 13.6047 88.092 13.764C87.8539 13.9232 87.6683 14.1496 87.5587 14.4145C87.4491 14.6793 87.4204 14.9708 87.4763 15.2519C87.5322 15.5331 87.6701 15.7914 87.8726 15.9941C88.0751 16.1968 88.3331 16.3348 88.614 16.3908C88.8949 16.4467 89.186 16.418 89.4506 16.3083C89.7152 16.1986 89.9414 16.0128 90.1005 15.7744C90.2596 15.5361 90.3445 15.2558 90.3445 14.9692C90.3472 14.778 90.3117 14.5883 90.2399 14.4112C90.1681 14.2341 90.0615 14.0733 89.9265 13.9381C89.7915 13.803 89.6308 13.6963 89.4538 13.6244C89.2769 13.5526 89.0874 13.5169 88.8965 13.5197Z" fill="white"/>
<path d="M139.599 1.67975C139.788 1.86781 139.916 2.10753 139.969 2.36864C140.021 2.62976 139.995 2.90057 139.894 3.1469C139.793 3.39322 139.621 3.60401 139.4 3.75267C139.179 3.90132 138.919 3.98118 138.653 3.98215C138.431 3.98397 138.211 3.93067 138.014 3.82701C137.817 3.72334 137.649 3.57253 137.525 3.388C137.4 3.20347 137.323 2.99096 137.3 2.76939C137.278 2.54782 137.31 2.32408 137.395 2.11808C137.479 1.91209 137.613 1.73025 137.785 1.58876C137.957 1.44727 138.161 1.35052 138.379 1.30713C138.598 1.26373 138.823 1.27505 139.036 1.34006C139.249 1.40508 139.442 1.52177 139.599 1.67975ZM139.495 3.47953C139.664 3.31203 139.779 3.09811 139.826 2.86491C139.874 2.63171 139.85 2.38975 139.76 2.16974C139.67 1.94973 139.516 1.76159 139.318 1.62919C139.121 1.49679 138.888 1.42611 138.651 1.42611C138.413 1.42611 138.181 1.49679 137.983 1.62919C137.786 1.76159 137.632 1.94973 137.542 2.16974C137.451 2.38975 137.428 2.63171 137.475 2.86491C137.522 3.09811 137.638 3.31203 137.806 3.47953C137.917 3.59202 138.049 3.68103 138.194 3.74123C138.34 3.80142 138.496 3.83157 138.653 3.82984C138.809 3.83338 138.965 3.80504 139.109 3.74656C139.254 3.68807 139.385 3.60067 139.495 3.48969V3.47953ZM138.06 1.87267H138.707C138.845 1.86348 138.982 1.90201 139.095 1.98183C139.136 2.01682 139.169 2.05993 139.192 2.10844C139.216 2.15694 139.229 2.20979 139.231 2.26368C139.233 2.31756 139.224 2.3713 139.205 2.42153C139.185 2.47175 139.155 2.51737 139.117 2.55552C139.035 2.63229 138.93 2.68037 138.818 2.6926C138.875 2.7087 138.927 2.73831 138.97 2.77891C139.018 2.8264 139.059 2.87922 139.095 2.93629L139.384 3.37799H139.031L138.805 2.99976C138.768 2.92582 138.716 2.86086 138.651 2.80937C138.6 2.78419 138.543 2.77281 138.486 2.77637H138.364V3.37799H138.06V1.87267ZM138.567 2.56568C138.649 2.56967 138.731 2.54841 138.8 2.50475C138.831 2.48468 138.855 2.45696 138.871 2.42441C138.887 2.39186 138.894 2.35565 138.892 2.31944C138.892 2.16206 138.788 2.08336 138.58 2.08336H138.354V2.56568H138.567Z" fill="white"/>
</g>
<defs>
<clipPath id="clip0_938_509">
<rect width="140" height="27.8624" fill="white" transform="translate(0 0.568359)"/>
</clipPath>
</defs>
</svg>
